<svg xmlns="http://www.w3.org/2000/svg" width="16" height="16" shape-rendering="crispEdges" viewBox="0 -0.5 16 16"><path stroke="#87a9dc" d="M3 0h6"/><path stroke="#88abde" d="M9 0h1"/><path stroke="#84a3d6" d="M10 0h1"/><path stroke="#737fb2" d="M11 0h1m-1 1h1"/><path stroke="#000" d="M12 0h1M4 15h1m10 0h1" opacity=".137"/><path stroke="#000" d="M13 0h1m0 1h1m0 1h1M3 15h1" opacity=".043"/><path stroke="#95c2f5" d="M3 1h1"/><path stroke="#fdfeff" d="M4 1h1M4 2h7M4 3h1"/><path stroke="#fff" d="M5 1h6M6 11h1"/><path stroke="#70a3c8" d="M12 1h1"/><path stroke="#000" d="M13 1h1m0 1h1m0 1h1" opacity=".231"/><path stroke="#92bdf0" d="M3 2h1"/><path stroke="#696a9b" d="M11 2h1m-1 1h3"/><path stroke="#becaff" d="M12 2h1m0 2h1"/><path stroke="#4195e4" d="M13 2h1"/><path stroke="#8fb5e8" d="M3 3h1"/><path stroke="#f9fcff" d="M5 3h1m1 0h2m1 0h1"/><path stroke="#f8fcff" d="M6 3h1m2 0h1"/><path stroke="#7c81ab" d="M14 3h1"/><path stroke="#fff" d="M2 4h1" opacity=".18"/><path stroke="#90b8ea" d="M3 4h1"/><path stroke="#ee9c90" d="M4 4h2"/><path stroke="#94bb62" d="M6 4h1"/><path stroke="#a5bea8" d="M7 4h1"/><path stroke="#a4c9ec" d="M8 4h1"/><path stroke="#c9e5ff" d="M9 4h1"/><path stroke="#f3f9ff" d="M10 4h1m1 0h1"/><path stroke="#f3f8ff" d="M11 4h1"/><path stroke="#797da7" d="M14 4h1"/><path stroke="#000" d="M15 4h1" opacity=".467"/><path stroke="#fdfcfb" d="M1 5h1" opacity=".29"/><path stroke="#f5a08c" d="M2 5h1" opacity=".949"/><path stroke="#f9532b" d="M3 5h1"/><path stroke="#ff4521" d="M4 5h2"/><path stroke="#72c000" d="M6 5h1"/><path stroke="#63a100" d="M7 5h1"/><path stroke="#6f8f31" d="M8 5h1"/><path stroke="#97b9cf" d="M9 5h1"/><path stroke="#a6d5ff" d="M10 5h1"/><path stroke="#ebf6ff" d="M11 5h1"/><path stroke="#ecf5ff" d="M12 5h1"/><path stroke="#bdcaff" d="M13 5h1"/><path stroke="#7377a3" d="M14 5h1"/><path stroke="#000" d="M15 5h1m-1 1h1m-1 1h1m-1 1h1m-1 1h1m-1 1h1m-1 1h1m-1 1h1m-1 1h1m-6 1h5" opacity=".561"/><path stroke="#fbffff" d="M0 6h1" opacity=".149"/><path stroke="#f6a490" d="M1 6h1" opacity=".937"/><path stroke="#fc5126" d="M2 6h1"/><path stroke="#ff7f5e" d="M3 6h1"/><path stroke="#f59b89" d="M4 6h1"/><path stroke="#ddb288" d="M5 6h1"/><path stroke="#aada59" d="M6 6h1"/><path stroke="#7dbd0d" d="M7 6h1"/><path stroke="#5b9200" d="M8 6h1"/><path stroke="#59761c" d="M9 6h1"/><path stroke="#8ab7dd" d="M10 6h1"/><path stroke="#b0daff" d="M11 6h1"/><path stroke="#e4f2ff" d="M12 6h1"/><path stroke="#bacaff" d="M13 6h1"/><path stroke="#6e719e" d="M14 6h1"/><path stroke="#f3dbd5" d="M0 7h1" opacity=".58"/><path stroke="#f7572e" d="M1 7h1"/><path stroke="#ff7c5a" d="M2 7h1"/><path stroke="#f4af9b" d="M3 7h1"/><path stroke="#909292" d="M4 7h1"/><path stroke="#d6dce2" d="M5 7h1"/><path stroke="#f0ebf8" d="M6 7h1"/><path stroke="#d3e1bd" d="M7 7h1"/><path stroke="#7cad24" d="M8 7h1"/><path stroke="#507700" d="M9 7h1"/><path stroke="#657a60" d="M10 7h1"/><path stroke="#76c0fe" d="M11 7h1"/><path stroke="#dbedff" d="M12 7h1"/><path stroke="#b7ccff" d="M13 7h1"/><path stroke="#676997" d="M14 7h1"/><path stroke="#f2a18a" d="M0 8h1" opacity=".851"/><path stroke="#fc4816" d="M1 8h1"/><path stroke="#ff9375" d="M2 8h1"/><path stroke="#f6f3ed" d="M3 8h1M3 9h1m-1 1h1"/><path stroke="#6d6d6d" d="M4 8h1M4 9h1"/><path stroke="#707070" d="M5 8h1"/><path stroke="#9e9e9e" d="M6 8h1m-3 3h1"/><path stroke="#efebf6" d="M7 8h1m0 1h1"/><path stroke="#b8cf93" d="M8 8h1"/><path stroke="#5a8313" d="M9 8h1"/><path stroke="#3c571f" d="M10 8h1"/><path stroke="#69bbff" d="M11 8h1"/><path stroke="#d3e9ff" d="M12 8h1"/><path stroke="#b4ccff" d="M13 8h1"/><path stroke="#606290" d="M14 8h1"/><path stroke="#ad93a4" d="M0 9h1" opacity=".937"/><path stroke="#267cdf" d="M1 9h1m0 2h1"/><path stroke="#5eb5f9" d="M2 9h1m-1 1h1"/><path stroke="#252525" d="M5 9h1"/><path stroke="#000" d="M6 9h1"/><path stroke="#626268" d="M7 9h1"/><path stroke="#e9c323" d="M9 9h1m-1 2h1"/><path stroke="#c7a719" d="M10 9h1m-1 1h1"/><path stroke="#67bcfe" d="M11 9h1"/><path stroke="#cce5ff" d="M12 9h1"/><path stroke="#b0cdff" d="M13 9h1"/><path stroke="#5a5b8b" d="M14 9h1"/><path stroke="#749ed5" d="M0 10h1" opacity=".875"/><path stroke="#0479f0" d="M1 10h1"/><path stroke="#353433" d="M4 10h1"/><path stroke="#1b1b1b" d="M5 10h1"/><path stroke="#7d7e7e" d="M6 10h1"/><path stroke="#d7dae3" d="M7 10h1"/><path stroke="#fffde9" d="M8 10h1m-2 1h1"/><path stroke="#f2cb38" d="M9 10h1"/><path stroke="#63bafe" d="M11 10h1"/><path stroke="#c4e2ff" d="M12 10h1"/><path stroke="#adcdff" d="M13 10h1"/><path stroke="#555587" d="M14 10h1"/><path stroke="#a5b0c8" d="M0 11h1" opacity=".647"/><path stroke="#1c5fcb" d="M1 11h1"/><path stroke="#afcded" d="M3 11h1"/><path stroke="#d6d5d2" d="M5 11h1"/><path stroke="#ebd263" d="M8 11h1"/><path stroke="#948732" d="M10 11h1"/><path stroke="#64bafe" d="M11 11h1"/><path stroke="#bfdfff" d="M12 11h1"/><path stroke="#abcdff" d="M13 11h1"/><path stroke="#515183" d="M14 11h1m-1 1h1"/><path stroke="#dcdad6" d="M0 12h1" opacity=".22"/><path stroke="#4d69b2" d="M1 12h1" opacity=".98"/><path stroke="#104cc6" d="M2 12h1"/><path stroke="#3170d3" d="M3 12h1"/><path stroke="#8bafed" d="M4 12h1"/><path stroke="#c8d4e2" d="M5 12h1"/><path stroke="#f7e6a1" d="M6 12h1"/><path stroke="#ebd05f" d="M7 12h1"/><path stroke="#eac835" d="M8 12h1"/><path stroke="#c8a206" d="M9 12h1"/><path stroke="#7099b1" d="M10 12h1"/><path stroke="#8ec6ff" d="M11 12h1"/><path stroke="#cad8ff" d="M12 12h1"/><path stroke="#a9ceff" d="M13 12h1"/><path stroke="#b2b2b7" d="M1 13h1" opacity=".427"/><path stroke="#364ca0" d="M2 13h1" opacity=".992"/><path stroke="#1539b4" d="M3 13h1"/><path stroke="#1e45c4" d="M4 13h2"/><path stroke="#eac62e" d="M6 13h1"/><path stroke="#ebc420" d="M7 13h1"/><path stroke="#c6a108" d="M8 13h1"/><path stroke="#736c5c" d="M9 13h1"/><path stroke="#656794" d="M10 13h1"/><path stroke="#5e6090" d="M11 13h1"/><path stroke="#5b5b8c" d="M12 13h1"/><path stroke="#575889" d="M13 13h1"/><path stroke="#545586" d="M14 13h1"/><path stroke="#959492" d="M2 14h1" opacity=".31"/><path stroke="#515681" d="M3 14h1" opacity=".808"/><path stroke="#1e288b" d="M4 14h1" opacity=".965"/><path stroke="#262f8e" d="M5 14h1"/><path stroke="#8c7a2a" d="M6 14h1"/><path stroke="#85721e" d="M7 14h1" opacity=".945"/><path stroke="#3f3c31" d="M8 14h1" opacity=".776"/><path stroke="#080808" d="M9 14h1" opacity=".576"/><path stroke="#000" d="M15 14h1" opacity=".42"/><path stroke="#000" d="M5 15h10" opacity=".184"/></svg>