<svg xmlns="http://www.w3.org/2000/svg" width="32" height="32" shape-rendering="crispEdges" viewBox="0 -0.5 32 32"><path stroke="gray" d="M0 0h1m0 1h1m0 1h1m0 1h1m0 1h1m12 0h1M5 5h1m9 0h2m1 0h1M6 6h1m6 0h2m4 0h1M7 7h1m3 0h2m7 0h1M8 8h3m9 0h2M7 9h2m9 0h2m2 0h1M5 10h2m9 0h2m5 0h1M3 11h2m9 0h2m8 0h1M1 12h2m9 0h2m11 0h1M0 13h1m9 0h2m14 0h1M0 14h1m7 0h2m17 0h1M0 15h2m4 0h2m20 0h1M0 16h1m1 0h1m25 0h1M1 17h1m1 0h1m23 0h1M2 18h1m1 0h1m20 0h2M3 19h1m1 0h1m17 0h2m2 0h1M4 20h1m1 0h1m14 0h2m4 0h1M5 21h1m1 0h1m11 0h2M6 22h1m1 0h1m8 0h2M7 23h1m1 0h1m5 0h2m-9 1h1m1 0h1m2 0h2m-6 1h1m1 0h2m2 0h1m-6 1h1m2 0h3m-5 1h3"/><path stroke="silver" d="M0 1h1m0 1h1m0 1h1m0 1h1m0 1h1m0 1h1m11 0h2M6 7h1m8 0h5M7 8h1m5 0h7m-9 1h7m2 0h2M9 10h7m2 0h5M7 11h7m2 0h8M5 12h7m2 0h11M3 13h7m2 0h14M1 14h2m1 0h4m2 0h17M2 15h2m1 0h1m2 0h20M1 16h1m1 0h2m1 0h22M2 17h1m1 0h2m1 0h20M3 18h1m1 0h2m1 0h17M4 19h1m1 0h2m1 0h14M5 20h1m1 0h2m1 0h11M6 21h1m1 0h2m1 0h8m4 0h3M7 22h1m1 0h2m1 0h5m4 0h4m1 0h1M8 23h1m1 0h2m1 0h2m4 0h5m1 0h1M9 24h1m1 0h2m4 0h4m3 0h1m1 0h1m-17 1h1m6 0h1m5 0h1m1 0h1m1 0h1m-17 1h2m5 0h1m3 0h1m1 0h1m1 0h1m-8 1h1m1 0h1m1 0h1m1 0h1m-6 1h1m1 0h1m1 0h1m-4 1h1"/><path stroke="#000" d="M0 2h1m0 1h1m0 1h1m0 1h1m0 1h1m0 1h1m0 1h1m-7 9h1m27 0h1M1 18h1m25 0h2M2 19h1m22 0h2m1 0h1M3 20h1m19 0h2m1 0h1m1 0h1M4 21h1m16 0h2m4 0h1M5 22h1m13 0h2m7 0h1M6 23h1m10 0h2m10 0h1M7 24h1m7 0h2m13 0h1M8 25h1m4 0h2m16 0h1M9 26h1m6 0h1m14 0h1m-22 1h1m3 0h2m13 0h2m-20 1h3m13 0h2m-4 1h2m-4 1h2m-3 1h1"/><path stroke="#fff" d="M17 5h1m-3 1h2m-4 1h2m-4 1h2M9 9h2m-4 1h2m-4 1h2m-4 1h2m-4 1h2m0 1h1m0 1h1m0 1h1m0 1h1m0 1h1m0 1h1m0 1h1m0 1h1m0 1h1m13 0h1m-14 1h1m11 0h1m1 0h2m-5 1h1m1 0h1m1 0h2m-5 1h1m1 0h1m1 0h2m-5 1h1m1 0h2m-3 1h1"/><path stroke="teal" d="M25 20h1m0 1h1m0 1h1m0 1h1m0 1h1m-14 1h1m13 0h1m-14 1h1m1 0h1m3 0h1m5 0h2m-13 1h1m1 0h1m1 0h1m1 0h1m2 0h2m-10 1h1m1 0h1m1 0h1m1 0h2m-7 1h1m1 0h3m-4 1h2"/><path stroke="#ff0" d="M21 24h1m-2 1h2"/><path stroke="olive" d="M22 24h1m-5 1h2m2 0h1m-3 1h2"/></svg>