<svg xmlns="http://www.w3.org/2000/svg" width="48" height="48" shape-rendering="crispEdges" viewBox="0 -0.5 48 48"><path stroke="red" d="M9 0h1M9 1h1m2 0h2M6 2h1m2 0h1m1 0h2M6 3h2m1 0h3M7 4h9M8 5h2m1 0h2M5 6h9M9 7h3m1 0h2M8 8h2m1 0h1m2 0h1M7 9h2m2 0h1m-1 1h1"/><path stroke="#868686" d="M10 0h26"/><path stroke="#fff" d="M10 1h2m2 0h21M10 2h1m-1 3h1m25 1h1m-1 1h2M10 8h1m25 0h3M10 9h1m-1 1h1m-1 1h1m-1 1h1m-1 1h1m-1 26h1m-1 1h1m-1 1h1m-1 1h1m-1 1h1"/><path stroke="#999" d="M35 1h1m-1 1h2m-2 1h1m1 0h1m-3 1h1m2 0h1m-4 1h1m3 0h1m-5 1h1m4 0h1m-6 1h1m5 0h1m-7 1h1m6 0h1m-2 2h2m-1 1h2m-1 1h1"/><path stroke="#555" d="M36 1h1m0 1h1m0 1h1m0 1h1m0 1h1m0 1h1m0 1h1m0 1h1m-9 1h1m8 1h1m-1 1h1m-1 1h1m-1 1h1m-1 1h1m-1 1h1m-1 1h1m-1 1h1m-1 1h1m-1 1h1m-1 1h1m-1 1h1m-1 1h1m-1 1h1m-1 1h1m-1 1h1m-1 1h1m-1 1h1M1 28h1m42 0h1M1 29h1m42 0h1M1 30h1m42 0h1M1 31h1m42 0h1m-1 1h1m-1 1h1m-1 1h1m-1 1h1m-1 1h1m-1 1h1m-1 1h1m-1 1h1m-1 1h1m-1 1h1m-1 1h1m-1 1h1m-1 1h1m-1 1h1m-1 1h1m-35 1h35"/><path stroke="#fffbf0" d="M13 2h22M12 3h23M16 4h19M13 5h22M14 6h21M12 7h1m2 0h20M12 8h2m1 0h19M12 9h19m1 0h1m1 0h1m-23 1h10m5 0h5m1 0h1m-23 1h9m3 0h3m2 0h5m1 0h1m-24 1h6m4 0h6m2 0h1m1 0h1m1 0h1m-23 1h1m9 0h7m1 0h2m1 0h1m-10 1h5m1 0h1m1 0h1m-8 1h4m2 0h1m-6 1h3m1 0h1m-4 1h3m-3 1h2m1 0h1m-16 1h3m11 0h1m-16 1h5m9 0h1m-16 1h7m9 0h1m-17 1h7m-7 6h15m-15 1h8m-7 1h6m2 6h1m-4 1h1m1 0h1m-10 1h7m1 0h1m1 0h1m-11 1h6m1 0h1m-8 1h3m1 0h1m1 0h1m1 0h1m-9 1h2m1 0h1m1 0h1m-6 1h1m1 0h1m1 0h1m-4 1h1m-2 1h1"/><path stroke="#ccc" d="M36 3h1m0 1h1m0 1h1m0 1h1m0 1h1m0 1h1m-5 2h2m-1 1h2m-1 1h2m-1 1h2m-1 1h2m-1 1h2m-1 1h1m-1 1h1m-1 1h1m-1 1h1m-1 1h1m-1 1h1m-1 1h1m-1 1h1m-1 1h1m-1 1h1m-1 1h1m-1 1h1m-1 1h1m-1 1h1m-1 1h1m-1 1h1m-1 1h1m-1 1h1m-1 1h1m-1 1h1m-1 1h1m-1 1h1m-1 1h1m-1 1h1m-1 1h1m-1 1h1m-1 1h1m-1 1h1m-1 1h1m-1 1h1m-34 1h34"/><path stroke="#e7e7d6" d="M36 4h1m0 1h1m0 1h1m0 1h1m0 1h1m-5 2h1m0 1h1m0 1h1m0 1h1m-1 1h2m-1 1h2m-3 1h1m1 0h2m-5 1h1m1 0h3m-8 1h1m1 0h1m1 0h1m1 0h2m-7 1h1m1 0h1m1 0h3m-8 1h1m1 0h1m1 0h4m-9 1h1m1 0h1m1 0h5m-8 1h1m1 0h6m-9 1h1m1 0h1m1 0h5m-10 1h1m1 0h1m1 0h6m-9 1h1m1 0h1m1 0h5m-10 1h1m1 0h1m1 0h6m-11 1h1m1 0h1m1 0h7m-10 1h1m1 0h8m-11 1h1m1 0h9m-14 1h1m1 0h1m1 0h1m1 0h8m-15 1h1m1 0h1m1 0h1m1 0h1m1 0h7m-14 1h1m1 0h1m1 0h1m1 0h8m-13 1h1m1 0h11m-14 1h1m1 0h1m1 0h10m-15 1h1m1 0h1m1 0h1m1 0h9m-16 1h1m1 0h1m1 0h1m1 0h10m-17 1h1m1 0h1m1 0h1m1 0h11m-16 1h1m1 0h1m1 0h12m-17 1h1m1 0h1m1 0h13m-16 1h1m1 0h14m-19 1h1m1 0h1m1 0h15m-20 1h1m1 0h1m1 0h1m1 0h14m-19 1h1m1 0h1m1 0h15m-21 1h2m1 0h18m-26 1h1m1 0h1m1 0h1m1 0h20"/><path stroke="#f1f1f1" d="M36 5h1m0 1h1m0 1h1m-5 1h1m4 0h1m-9 1h1m1 0h1m-2 1h1m1 0h1m-2 1h1m1 0h1m-6 1h1m1 0h1m1 0h3m-6 1h1m1 0h2m1 0h1m-7 1h1m1 0h2m1 0h1m-7 1h1m1 0h2m1 0h1m-5 1h1m1 0h1m-4 1h3m-4 1h1m1 0h1m1 0h1m-6 1h1m1 0h1m1 0h1m-4 1h1m1 0h1m-2 1h1m1 0h1m-3 1h2m-2 1h1m0 1h1m-2 1h1m-5 8h1m-1 1h1m-3 1h2m-3 1h2m1 0h1m-4 1h1m-4 2h2m-3 1h1m1 0h1m-3 1h2"/><path stroke="#777" d="M9 9h1m-1 1h1m33 0h1M9 11h1m-1 1h1m-1 1h1M2 23h1m-1 2h1m-3 1h1m1 0h1m-3 1h1m-1 1h1m8 8h1m-1 3h1m-1 1h1m-1 1h1m-1 1h1m-1 1h1m-1 1h1m-1 1h1m-1 1h1m-1 1h1"/><path stroke="#333" d="M36 9h9"/><path stroke="#06f" d="M22 10h4m-6 1h3m-6 1h4"/><path stroke="#06c" d="M26 10h1m-1 1h2m-1 1h2m-17 1h5m2 0h2m7 0h1M9 14h4m8 0h2m5 0h1M8 15h4m11 0h1m4 0h1M7 16h3m14 0h1m3 0h1M7 17h1m17 0h1M6 18h1m10 0h1m7 0h1m-13 1h1m4 0h1m7 0h1m-15 1h1m6 0h1m6 0h1m-16 1h1m8 0h1m5 0h1m-16 1h1m8 0h1m6 0h1m-17 1h10m6 0h1M8 24h1m18 0h1M8 25h1m18 0h1m-1 1h1M8 27h1m2 1h1m-1 1h1m-9 1h1m8 0h1m1 2h4"/><path stroke="#eaeaea" d="M35 10h1m0 1h1m0 1h1m-3 1h1m1 0h2m-5 1h1m1 0h3m-6 1h1m1 0h5m-9 1h1m1 0h6m1 0h1m-9 1h6m1 0h1m-9 1h1m1 0h2m1 0h1m1 0h1m1 0h1m-11 1h1m1 0h4m1 0h1m1 0h1m-11 1h1m1 0h4m1 0h1m1 0h1m-12 1h1m2 0h1m1 0h2m1 0h1m1 0h1m-10 1h1m2 0h4m1 0h1m-9 1h1m1 0h4m1 0h1m1 0h1m-10 1h2m1 0h2m1 0h1m1 0h1m-9 1h1m1 0h4m1 0h1m1 0h1m-10 1h5m1 0h1m1 0h1m-9 1h4m1 0h1m1 0h1m-9 1h6m1 0h1m-7 1h4m1 0h1m-6 1h1m1 0h1m1 0h1m1 0h1m-8 1h1m1 0h1m1 0h1m1 0h1m1 0h1m-10 1h3m1 0h1m1 0h1m1 0h1m-9 1h4m1 0h1m-8 1h1m1 0h3m1 0h1m1 0h1m-8 1h3m1 0h1m1 0h1m1 0h1m-10 1h1m1 0h1m1 0h1m1 0h1m1 0h1m-14 1h1m1 0h1m1 0h3m1 0h1m1 0h1m1 0h1m-14 1h1m1 0h1m1 0h5m1 0h1m1 0h1m-14 1h1m3 0h5m1 0h1m1 0h1m-16 1h1m1 0h1m4 0h6m1 0h1m-16 1h1m1 0h1m1 0h1m2 0h4m1 0h1m1 0h1m-16 1h1m1 0h1m1 0h7m1 0h1m1 0h1m1 0h1m-18 1h1m1 0h11m1 0h1m1 0h1m-18 1h1m1 0h10m2 0h1m-15 1h7m1 0h1m1 0h1m1 0h1"/><path stroke="silver" d="M39 10h2m-1 1h2m-1 1h2m-1 1h2m-1 1h1"/><path stroke="#09f" d="M17 13h1m0 1h1m1 0h1m-4 1h1m1 0h4m-7 1h1m1 0h2m2 0h2m-7 1h1m2 0h1m2 0h2m-7 1h1m5 0h1m-6 1h1m5 0h1m-6 1h1m4 0h1m-1 2h2m-6 1h1m2 0h1m1 0h1m-11 1h1m1 0h6m1 0h1m-9 1h1m1 0h8m-9 1h1m1 0h7m-4 4h1m1 0h1m-2 1h1"/><path stroke="#39c" d="M18 13h1m-4 1h1m1 0h1m1 0h1m-6 1h1m1 0h1m1 0h1m-4 1h1m1 0h1m-4 1h1m1 0h1m1 0h1m-6 1h1m0 6h1m2 0h1m-3 1h1m2 0h1m-3 1h1m2 0h1m2 4h1m1 0h1m1 0h1m-4 1h1m1 0h1"/><path stroke="#36f" d="M13 14h2m1 0h1m-5 1h2m1 0h1m-2 1h1m-2 1h1m1 0h1m-4 1h1m-3 1h2m-3 1h2m-3 1h3m-4 1h4m-4 1h4m-5 1h2m1 0h5m1 0h1M5 25h2m2 0h6m1 0h1M4 26h2m3 0h7m1 0h1M4 27h2m3 0h2m-8 1h2m4 0h2m-8 1h1m6 0h1m11 0h5M2 30h1m7 0h2m9 0h1M2 31h1m8 0h2m7 0h3M2 32h1m9 0h2m4 0h7M2 33h1m10 0h11m-9 1h8m-4 1h2"/><path stroke="#369" d="M7 15h1"/><path stroke="#33c" d="M6 16h1m-2 1h1m-2 1h1m9 0h3M3 19h1m13 0h1m0 1h1M2 21h1m4 8h1m12 0h1M8 30h1m10 0h1M7 31h1m0 1h2m-8 5h1m13 0h2"/><path stroke="#69c" d="M10 16h1m2 0h1m-3 1h2m-2 1h1"/><path stroke="#cc9" d="M11 16h2m-4 2h1m-4 1h1m1 0h1m-4 1h1m1 0h1"/><path stroke="#3cf" d="M20 16h2m-3 1h1m1 0h2m-4 1h2m1 0h1m-3 1h2m2 0h1m-4 1h2m-2 1h1m2 0h2m-5 1h1m2 0h1m-3 1h2m1 0h1m-2 1h1"/><path stroke="#069" d="M6 17h1m-2 2h1m-2 1h1m1 6h1m1 0h1m-2 1h1m-3 1h1m1 0h1m-4 1h1m1 0h1m1 0h1m18 0h1M7 30h1m12 0h1m6 0h1M3 31h1m4 0h2m3 0h7m6 0h1M3 32h1m6 0h1m14 0h1M3 33h1m5 0h1m1 0h1m12 0h1M2 34h1m9 0h2m9 0h1M2 35h1m11 0h2m5 0h2M2 36h1m11 0h7M9 37h2m-7 1h5"/><path stroke="#699" d="M8 17h1"/><path stroke="#a0a0a4" d="M9 17h1m-3 1h1"/><path stroke="#ffc" d="M10 17h1"/><path stroke="#009" d="M5 18h1m-2 1h1m-2 1h1m15 1h1m-1 1h1m-9 5h17M7 33h1m0 1h1m1 1h1m0 1h2m1 1h2m-7 1h2"/><path stroke="#ff9" d="M8 18h1m-2 1h1m-2 1h1"/><path stroke="#36c" d="M10 18h1m-2 1h1m-4 4h1m-2 1h1m1 1h1m0 3h1m0 1h1m11 0h1M9 30h1m0 1h1m0 1h1m0 1h1m1 1h1m-2 1h1m2 0h3"/><path stroke="#6ff" d="M21 18h1m1 0h1m-2 1h1m0 1h1m-2 1h1m0 1h1"/><path stroke="#39f" d="M12 19h1m-2 1h1"/><path stroke="#9ff" d="M23 19h1"/><path stroke="#66c" d="M8 20h1m-2 1h1m-2 1h1m-4 5h1"/><path stroke="#3ff" d="M24 20h1"/><path stroke="#339" d="M3 21h1m3 5h1m-2 1h1m-1 1h1m-2 1h1m0 1h1m-1 1h1m0 1h1m0 1h1m0 1h1m1 1h1"/><path stroke="#cc6" d="M4 21h1m1 0h1m-3 1h2"/><path stroke="#fc9" d="M5 21h1"/><path stroke="#6cf" d="M23 21h1m-2 1h1"/><path stroke="#336" d="M2 22h1"/><path stroke="#996" d="M3 22h1m-1 2h2"/><path stroke="navy" d="M1 23h1m3 7h1m-1 1h1m0 1h1m3 2h1m-8 3h1"/><path stroke="#ada990" d="M3 23h1"/><path stroke="#c96" d="M4 23h1"/><path stroke="#969696" d="M5 23h1"/><path stroke="#666" d="M1 24h1"/><path stroke="#993" d="M2 24h1m0 1h1"/><path stroke="#0cf" d="M26 24h1"/><path stroke="#663" d="M1 25h1m-1 1h1m-1 1h2"/><path stroke="#669" d="M4 25h1m-3 3h1m-1 1h1"/><path stroke="olive" d="M3 26h1"/><path stroke="#5f5f5f" d="M0 29h1m-1 1h1m0 2h1m-1 1h1m-2 1h2m-1 1h1m-1 1h1m-1 1h1"/><path stroke="#039" d="M4 30h1m0 2h1m0 1h1"/><path stroke="#4d4d4d" d="M0 31h1m-1 1h1m-1 1h1"/><path stroke="#006" d="M4 31h1"/><path stroke="#292929" d="M4 32h1"/><path stroke="#1c1c1c" d="M5 33h1m0 1h2m3 3h2"/><path stroke="#03c" d="M10 33h1m0 1h1m0 1h1m0 1h1"/><path stroke="#040404" d="M8 35h2m0 1h1"/><path stroke="#036" d="M13 37h1M2 38h1m0 1h6"/><path stroke="#00f" d="M3 38h1"/></svg>