<svg xmlns="http://www.w3.org/2000/svg" width="16" height="16" shape-rendering="crispEdges" viewBox="0 -0.5 16 16"><path stroke="gray" d="M5 0h3M4 1h1m3 0h1m2 0h3M3 2h5m1 0h3m2 0h1M2 3h1m4 0h2m2 0h2m2 0h1M1 4h1m7 0h1m2 0h2m1 0h1M1 5h1m1 0h3m4 0h2m2 0h2M0 6h1m2 0h3m6 0h1m1 0h1M0 7h2m2 0h1m1 0h2m5 0h1M0 8h3m1 0h2m1 0h3m3 0h2M0 9h5m1 0h1m1 0h1m1 0h1m3 0h2M0 10h8m1 0h5m1 0h1M2 11h12"/><path stroke="silver" d="M5 1h2m1 1h1m3 0h1M3 3h2m4 0h1m3 0h1M2 4h5m3 0h1m3 0h1M2 5h1m3 0h2m4 0h1M1 6h1m4 0h1m1 0h3m2 0h1M2 7h1m2 0h1m2 0h2m1 0h1M3 8h1m6 0h3M5 9h1m1 0h1m1 0h1m1 0h3m-6 1h1m5 0h1"/><path stroke="#fff" d="M7 1h1m5 1h1M5 3h2m3 0h1m3 0h1M7 4h2m2 0h1M8 5h2m3 0h1M2 6h1m4 0h1m3 0h1M3 7h1m6 0h1m1 0h1M6 8h1"/></svg>