<svg xmlns="http://www.w3.org/2000/svg" width="16" height="16" shape-rendering="crispEdges" viewBox="0 -0.5 16 16"><path stroke="#828282" d="M11 1h1m2 0h1m-5 1h1"/><path stroke="#383838" d="M12 1h1m-3 3h1"/><path stroke="#2e2e2e" d="M13 1h1"/><path stroke="#000" d="M11 2h3m-2 1h1m1 1h1m-2 1h2"/><path stroke="silver" d="M14 2h1m-4 1h1m1 0h1m-2 1h1"/><path stroke="#6f6f6f" d="M15 2h1"/><path stroke="#6b6ca3" d="M2 3h1m3 0h1M6 4h1"/><path stroke="#555590" d="M3 3h1"/><path stroke="#474785" d="M4 3h1"/><path stroke="#5c5c96" d="M5 3h1"/><path stroke="#414141" d="M10 3h1"/><path stroke="#fff" d="M14 3h1m-4 1h1m1 0h1m-2 1h1"/><path stroke="#090909" d="M15 3h1"/><path stroke="#6363a1" d="M1 4h1"/><path stroke="#6061ab" d="M2 4h1"/><path stroke="#7074c5" d="M3 4h1"/><path stroke="#767acd" d="M4 4h1"/><path stroke="#7275bb" d="M5 4h1"/><path stroke="#9a9aac" d="M7 4h1"/><path stroke="#050505" d="M15 4h1"/><path stroke="#7373a4" d="M0 5h1"/><path stroke="#6e71b9" d="M1 5h1"/><path stroke="#a6adeb" d="M2 5h1"/><path stroke="#a5a8c0" d="M3 5h1"/><path stroke="#9c9da2" d="M4 5h1"/><path stroke="#a0a1a5" d="M5 5h1"/><path stroke="#a7a8b0" d="M6 5h1"/><path stroke="#a4a4a7" d="M7 5h1"/><path stroke="#999" d="M8 5h1m0 7h1"/><path stroke="#a7a7a7" d="M9 5h1"/><path stroke="#b4b4b4" d="M10 5h1"/><path stroke="#424242" d="M11 5h1"/><path stroke="#585858" d="M15 5h1"/><path stroke="#d1d1db" d="M0 6h1"/><path stroke="#8889a5" d="M1 6h1"/><path stroke="#9b9b9e" d="M2 6h1"/><path stroke="#babbbc" d="M3 6h1"/><path stroke="#f2f4f4" d="M4 6h1"/><path stroke="#d5d5d9" d="M5 6h1"/><path stroke="#bebfc1" d="M6 6h1"/><path stroke="#b0b2b5" d="M7 6h1"/><path stroke="#b6bdc4" d="M8 6h1"/><path stroke="#b3c0cf" d="M9 6h1"/><path stroke="#cccfd3" d="M10 6h1"/><path stroke="#a4a4a4" d="M11 6h1m1 1h1"/><path stroke="#818182" d="M12 6h1"/><path stroke="#1d1d1d" d="M13 6h1"/><path stroke="#666" d="M14 6h1"/><path stroke="#ababab" d="M0 7h1m2 3h1"/><path stroke="#bbbcc0" d="M1 7h1"/><path stroke="#bcbdc1" d="M2 7h1"/><path stroke="#9d9e9e" d="M3 7h1"/><path stroke="#a9a9ac" d="M4 7h1"/><path stroke="#d6d9e3" d="M5 7h1"/><path stroke="#bcd8f6" d="M6 7h1"/><path stroke="#b3d0f3" d="M7 7h1"/><path stroke="#b7d4f3" d="M8 7h1"/><path stroke="#b5cfed" d="M9 7h1"/><path stroke="#b3cfec" d="M10 7h1"/><path stroke="#cfdced" d="M11 7h1"/><path stroke="#bebebe" d="M12 7h1"/><path stroke="#afafaf" d="M0 8h1m4 3h1"/><path stroke="#aeaeae" d="M1 8h1m-2 2h1"/><path stroke="#cccdcf" d="M2 8h1"/><path stroke="#f4f7fb" d="M3 8h1"/><path stroke="#c7c8ca" d="M4 8h1"/><path stroke="#a1a1a3" d="M5 8h1"/><path stroke="#e0e2e7" d="M6 8h1"/><path stroke="#c1daf4" d="M7 8h1"/><path stroke="#abcaec" d="M8 8h1"/><path stroke="#c0daf4" d="M9 8h1"/><path stroke="#c1dbf2" d="M10 8h1"/><path stroke="#c8deef" d="M11 8h1"/><path stroke="#d3d5da" d="M12 8h1"/><path stroke="#b1b3b8" d="M13 8h1"/><path stroke="#a5a5a7" d="M14 8h1"/><path stroke="#b9b9b9" d="M0 9h1"/><path stroke="#c1c1c2" d="M1 9h1"/><path stroke="#a3a3a3" d="M2 9h1"/><path stroke="#bdbdbd" d="M3 9h1"/><path stroke="#fcfcfc" d="M4 9h1m0 1h1"/><path stroke="#dfdfdf" d="M5 9h1"/><path stroke="#aaa" d="M6 9h1"/><path stroke="#f1f1f1" d="M7 9h1m-7 1h1"/><path stroke="#d7e7f4" d="M8 9h1"/><path stroke="#cfd4da" d="M9 9h1"/><path stroke="#c6c9d2" d="M10 9h1"/><path stroke="#bfc2d4" d="M11 9h1"/><path stroke="#afb8e2" d="M12 9h1"/><path stroke="#9ba3ca" d="M13 9h1"/><path stroke="#9e9ea0" d="M14 9h1m-9 2h1"/><path stroke="#979797" d="M15 9h1"/><path stroke="#eaeaea" d="M2 10h1"/><path stroke="#c7c7c6" d="M4 10h1"/><path stroke="#c3c4c4" d="M6 10h1"/><path stroke="#b4b5b7" d="M7 10h1"/><path stroke="#bbbfd6" d="M8 10h1"/><path stroke="#b3bbe4" d="M9 10h1"/><path stroke="#a7b2e6" d="M10 10h1"/><path stroke="#a1a9cf" d="M11 10h1"/><path stroke="#a3a6b6" d="M12 10h1"/><path stroke="#99999b" d="M13 10h1"/><path stroke="#8d8d8d" d="M14 10h1"/><path stroke="#919191" d="M15 10h1"/><path stroke="#9c9c9c" d="M1 11h1"/><path stroke="#c2c1c1" d="M2 11h1"/><path stroke="#ececec" d="M3 11h1"/><path stroke="#b5b5b5" d="M4 11h1"/><path stroke="#acb1c4" d="M7 11h1"/><path stroke="#a3add9" d="M8 11h1"/><path stroke="#a1a6b9" d="M9 11h1"/><path stroke="#9b9c9f" d="M10 11h1"/><path stroke="#9d9e9f" d="M11 11h1"/><path stroke="#959595" d="M12 11h1"/><path stroke="#777" d="M13 11h1"/><path stroke="#6a6a6a" d="M14 11h1"/><path stroke="#9e9e9f" d="M2 12h1m0 1h1"/><path stroke="#9b9b9c" d="M3 12h1m2 1h1"/><path stroke="#cbcbcb" d="M4 12h1"/><path stroke="#aeb1bb" d="M5 12h1"/><path stroke="#a1a7c0" d="M6 12h1"/><path stroke="#9c9ea3" d="M7 12h1"/><path stroke="#9b9b9d" d="M8 12h1"/><path stroke="#7d7d7d" d="M10 12h1"/><path stroke="#6b6b6b" d="M11 12h1"/><path stroke="#7c7c7c" d="M12 12h1"/><path stroke="#a2a2a2" d="M4 13h1"/><path stroke="#a2a2a4" d="M5 13h1"/><path stroke="#868686" d="M7 13h1"/><path stroke="#6d6d6d" d="M8 13h1"/><path stroke="#717171" d="M9 13h1"/><path stroke="#747474" d="M5 14h2"/></svg>