<svg xmlns="http://www.w3.org/2000/svg" width="16" height="16" shape-rendering="crispEdges" viewBox="0 -0.5 16 16"><path stroke="#76808a" d="M2 0h1"/><path stroke="#798592" d="M3 0h1"/><path stroke="#78838f" d="M4 0h1"/><path stroke="#76808d" d="M5 0h1"/><path stroke="#757f8b" d="M6 0h1"/><path stroke="#747c89" d="M7 0h1"/><path stroke="#737986" d="M8 0h1"/><path stroke="#717784" d="M9 0h1"/><path stroke="#0d72ba" d="M10 0h1m0 1h1m0 1h1m0 1h1"/><path stroke="#727272" d="M2 1h1M2 2h1M2 3h1M2 4h1M2 5h1M2 6h1M2 7h1M2 8h1M2 9h1m-1 1h1m-1 1h1m-1 1h1m-1 1h1m-1 1h1m-1 1h12"/><path stroke="#fff" d="M3 1h1m0 1h4M4 3h3M4 4h2"/><path stroke="#fcfcfc" d="M4 1h1M3 4h1"/><path stroke="#f9f9f9" d="M5 1h1"/><path stroke="#f7f7f7" d="M6 1h1"/><path stroke="#f5f5f5" d="M7 1h1"/><path stroke="#f2f2f2" d="M8 1h1"/><path stroke="#eceef0" d="M9 1h1"/><path stroke="#5c99d1" d="M10 1h1m-1 1h2m-2 1h3"/><path stroke="#fefefe" d="M3 2h1"/><path stroke="#f9fcff" d="M8 2h1M7 3h1M6 4h1"/><path stroke="#f1f9ff" d="M9 2h1M8 3h1M7 4h1"/><path stroke="#fdfdfd" d="M3 3h1"/><path stroke="#edf6ff" d="M9 3h1M8 4h1"/><path stroke="#e7f2ff" d="M9 4h1"/><path stroke="#e0eefd" d="M10 4h1"/><path stroke="#d3e7fb" d="M11 4h1"/><path stroke="#b3c4ff" d="M12 4h1"/><path stroke="#595973" d="M13 4h1"/><path stroke="#767676" d="M14 4h1m-1 1h1"/><path stroke="#e2eefb" d="M3 5h1"/><path stroke="#9cf" d="M4 5h6m1 0h1"/><path stroke="#acafcf" d="M10 5h1"/><path stroke="#c3cfff" d="M12 5h1"/><path stroke="#595972" d="M13 5h1"/><path stroke="#e7f0fa" d="M3 6h1"/><path stroke="#b1d8ff" d="M4 6h1m5 6h1m-2 1h1"/><path stroke="#afd7ff" d="M5 6h1M4 7h1"/><path stroke="#aed6ff" d="M6 6h1M5 7h1M4 8h1"/><path stroke="#acd6ff" d="M7 6h1M6 7h1M5 8h1"/><path stroke="#abd5ff" d="M8 6h1M7 7h1M6 8h1m4 3h1m-1 1h1m-2 1h1"/><path stroke="#bfacbf" d="M9 6h1"/><path stroke="#f30" d="M10 6h1m-1 1h1M9 8h1m-4 2h1m1 0h1m-2 1h1"/><path stroke="#c6969f" d="M11 6h1"/><path stroke="#cad7ff" d="M12 6h1"/><path stroke="#575771" d="M13 6h1"/><path stroke="#7c7c7c" d="M14 6h1m-1 1h1m-1 1h1m-1 1h1m-1 1h1m-1 1h1m-1 1h1m-1 1h1m-1 1h1m-1 1h1"/><path stroke="#e2edf9" d="M3 7h1"/><path stroke="#aad4ff" d="M8 7h1M7 8h1"/><path stroke="#f24620" d="M9 7h1M5 9h1m3 0h1"/><path stroke="#b2bfdf" d="M11 7h1"/><path stroke="#c8d7ff" d="M12 7h1"/><path stroke="#55556e" d="M13 7h1"/><path stroke="#ddebf8" d="M3 8h1"/><path stroke="#d48380" d="M8 8h1"/><path stroke="#d18280" d="M10 8h1"/><path stroke="#a4d1ff" d="M11 8h1"/><path stroke="#c5d5ff" d="M12 8h1"/><path stroke="#52526c" d="M13 8h1"/><path stroke="#dae8f7" d="M3 9h1"/><path stroke="#c1adbf" d="M4 9h1"/><path stroke="#caa5af" d="M6 9h1"/><path stroke="#b5c0df" d="M7 9h1m-3 2h1"/><path stroke="#f93d10" d="M8 9h1m-4 1h1m1 0h1"/><path stroke="#aac8ef" d="M10 9h1"/><path stroke="#a2d1ff" d="M11 9h1m-2 1h1m-2 1h1"/><path stroke="#c2d4ff" d="M12 9h1"/><path stroke="#51516a" d="M13 9h1"/><path stroke="#d5e5f6" d="M3 10h1"/><path stroke="#c4959f" d="M4 10h1"/><path stroke="#be9faf" d="M9 10h1"/><path stroke="#a1d0ff" d="M11 10h1"/><path stroke="#c0d3ff" d="M12 10h1"/><path stroke="#4e4e68" d="M13 10h1"/><path stroke="#d0e2f5" d="M3 11h1"/><path stroke="#aad5ff" d="M4 11h1"/><path stroke="#df6350" d="M6 11h1"/><path stroke="#e85b40" d="M8 11h1"/><path stroke="#a7d3ff" d="M10 11h1"/><path stroke="#bcd1ff" d="M12 11h1"/><path stroke="#4c4c66" d="M13 11h1"/><path stroke="#d9e6f4" d="M3 12h1"/><path stroke="#d5eaff" d="M4 12h1"/><path stroke="#cee7ff" d="M5 12h1m-2 1h1"/><path stroke="#c9e4ff" d="M6 12h1m-2 1h1"/><path stroke="#d2b5bf" d="M7 12h1"/><path stroke="#c4c8df" d="M8 12h1"/><path stroke="#b6dbff" d="M9 12h1m-2 1h1"/><path stroke="#bad0ff" d="M12 12h1"/><path stroke="#4a4a63" d="M13 12h1"/><path stroke="#d2e3f3" d="M3 13h1"/><path stroke="#c3e1ff" d="M6 13h1"/><path stroke="#bddeff" d="M7 13h1"/><path stroke="#a5d2ff" d="M11 13h1"/><path stroke="#b6ceff" d="M12 13h1"/><path stroke="#484862" d="M13 13h1"/><path stroke="#b1b5dd" d="M3 14h1"/><path stroke="#afb6e2" d="M4 14h1"/><path stroke="#acb3e1" d="M5 14h1"/><path stroke="#aab2e0" d="M6 14h1"/><path stroke="#a8b0df" d="M7 14h1"/><path stroke="#a4aede" d="M8 14h1"/><path stroke="#a2acdd" d="M9 14h1"/><path stroke="#a0abdc" d="M10 14h1"/><path stroke="#9da8da" d="M11 14h1"/><path stroke="#93a6d9" d="M12 14h1"/><path stroke="#45455e" d="M13 14h1"/></svg>