<svg xmlns="http://www.w3.org/2000/svg" width="48" height="48" shape-rendering="crispEdges" viewBox="0 -0.5 48 48"><path stroke="#000" d="M13 3h6M8 4h1m11 0h1m11 1h6M27 6h1m11 1h2m1 1h1M4 10h1m-1 1h1m-1 1h1m-1 1h1m-1 1h1m37 0h1M4 15h1m37 0h1M4 16h1m37 0h1M4 17h1m37 0h1M4 18h1m-1 1h1m-1 1h1m-1 1h1m-1 1h1m36 0h1m-1 1h1m-1 1h1m-1 1h1M5 29h1m-1 1h1m-1 1h1m-1 1h1m-1 1h1m-1 1h1m-1 1h1m-1 1h1m-1 1h1m-1 1h1m-1 1h1m7 1h2m22 0h1M8 41h2m10 2h1" opacity=".004"/><path stroke="#c69400" d="M9 4h1" opacity=".259"/><path stroke="#b88a00" d="M10 4h1" opacity=".278"/><path stroke="#c09000" d="M11 4h1" opacity=".467"/><path stroke="#be8f00" d="M12 4h1" opacity=".537"/><path stroke="#c29200" d="M13 4h1" opacity=".655"/><path stroke="#c59400" d="M14 4h1m18 2h1" opacity=".776"/><path stroke="#c69500" d="M15 4h1" opacity=".835"/><path stroke="#c90" d="M16 4h1m17 2h2m0 2h1m-4 1h2M5 10h1m-1 1h1m-1 1h1m33 0h1m-30 3h1M6 29h2m-2 1h2m-1 1h1m-1 1h1m3 5h1"/><path stroke="#c79500" d="M17 4h1" opacity=".894"/><path stroke="#6e5300" d="M18 4h1" opacity=".231"/><path stroke="#000" d="M19 4h1m-9 36h1" opacity=".043"/><path stroke="#ca9700" d="M7 5h1" opacity=".631"/><path stroke="#d2a620" d="M8 5h1"/><path stroke="#d9b340" d="M9 5h1m25 4h1"/><path stroke="#dfbf60" d="M10 5h1"/><path stroke="#e6cc80" d="M11 5h1m25 4h1"/><path stroke="#e9d28f" d="M12 5h1m4 0h1"/><path stroke="#f2e6bf" d="M13 5h1"/><path stroke="#f5eccf" d="M14 5h1"/><path stroke="#fff" d="M15 5h2m0 16h1m-2 1h1m2 1h2m-2 1h2m-3 1h3m-3 1h3m-2 1h1m-1 1h1m-1 1h1m13 2h1m-2 2h1m-2 1h1m-2 1h1m-3 1h2"/><path stroke="#b08400" d="M18 5h1" opacity=".867"/><path stroke="#000" d="M19 5h1m20 15h1m-2 13h1" opacity=".216"/><path stroke="#000" d="M20 5h1m21 7h1m-4 24h1m-22 5h1m12 2h1" opacity=".039"/><path stroke="#c69400" d="M6 6h1m21 0h1M5 8h1" opacity=".129"/><path stroke="#cf9f10" d="M7 6h1m31 5h1"/><path stroke="#fcf7ea" d="M8 6h1"/><path stroke="#fffdfa" d="M9 6h2m6 0h1"/><path stroke="#fffee2" d="M11 6h2"/><path stroke="#fffeca" d="M13 6h1"/><path stroke="#fffec3" d="M14 6h1m1 0h1"/><path stroke="#ffffb1" d="M15 6h1"/><path stroke="#dcb84e" d="M18 6h1"/><path stroke="#674e01" d="M19 6h1" opacity=".624"/><path stroke="#000" d="M20 6h1" opacity=".141"/><path stroke="#000" d="M21 6h1M6 40h1" opacity=".016"/><path stroke="#006500" d="M23 6h1" opacity=".094"/><path stroke="#006500" d="M24 6h1" opacity=".831"/><path stroke="#060" d="M25 6h1" opacity=".761"/><path stroke="#006400" d="M26 6h1" opacity=".184"/><path stroke="#c09000" d="M29 6h1" opacity=".267"/><path stroke="#be8f00" d="M30 6h1" opacity=".404"/><path stroke="#c09000" d="M31 6h1" opacity=".533"/><path stroke="#c49300" d="M32 6h1" opacity=".714"/><path stroke="#bb8c00" d="M36 6h1" opacity=".678"/><path stroke="#000" d="M37 6h1m0 1h1m1 21h1m-7 13h1" opacity=".094"/><path stroke="#000" d="M38 6h1m3 3h1m-2 11h1m-2 14h1m-6 7h1" opacity=".024"/><path stroke="#c79500" d="M6 7h1" opacity=".639"/><path stroke="#e6cb7b" d="M7 7h1m22 0h1"/><path stroke="#fffcef" d="M8 7h1"/><path stroke="#ffff9f" d="M9 7h1m7 1h1"/><path stroke="#ff9" d="M10 7h7M9 8h8m16 0h1M9 9h9M8 10h10M8 11h9m-7 9h5"/><path stroke="#fffdd3" d="M17 7h1"/><path stroke="#fcf6e6" d="M18 7h1"/><path stroke="#cba020" d="M19 7h1" opacity=".976"/><path stroke="#403001" d="M20 7h1" opacity=".408"/><path stroke="#946f00" d="M21 7h1" opacity=".259"/><path stroke="#617800" d="M22 7h1" opacity=".424"/><path stroke="#0b6400" d="M23 7h1" opacity=".945"/><path stroke="#056500" d="M24 7h1" opacity=".976"/><path stroke="#266f00" d="M25 7h1" opacity=".945"/><path stroke="#988a00" d="M26 7h1" opacity=".867"/><path stroke="#d2a51f" d="M27 7h1"/><path stroke="#d9b23d" d="M28 7h1"/><path stroke="#e2c46b" d="M29 7h1"/><path stroke="#efdda8" d="M31 7h1"/><path stroke="#f2e3b8" d="M32 7h1"/><path stroke="#fffcf5" d="M33 7h1"/><path stroke="#fffcea" d="M34 7h1"/><path stroke="#fffdde" d="M35 7h1"/><path stroke="#cf9f0f" d="M36 7h1m-26 8h1m-4 2h1"/><path stroke="#020202" d="M37 7h1M10 39h1" opacity=".369"/><path stroke="#d2a51e" d="M6 8h1"/><path stroke="#fcf4e2" d="M7 8h1"/><path stroke="#fffdc5" d="M8 8h1m21 0h1"/><path stroke="#fffbe1" d="M18 8h1"/><path stroke="#f5e8c4" d="M19 8h1"/><path stroke="#d9b13c" d="M20 8h1"/><path stroke="#8c9830" d="M21 8h1"/><path stroke="#0c6706" d="M22 8h1"/><path stroke="#48a62f" d="M23 8h1"/><path stroke="#44a32e" d="M24 8h1"/><path stroke="#3c8332" d="M25 8h1"/><path stroke="#cedec3" d="M26 8h1"/><path stroke="#fffaf1" d="M27 8h1"/><path stroke="#fffbdb" d="M28 8h1"/><path stroke="#fffcd0" d="M29 8h1"/><path stroke="#fffdb5" d="M31 8h1"/><path stroke="#fffeaa" d="M32 8h1"/><path stroke="#f9f286" d="M34 8h1"/><path stroke="#f2e673" d="M35 8h1m-8 1h1"/><path stroke="#836301" d="M37 8h1" opacity=".784"/><path stroke="#be8f00" d="M38 8h1" opacity=".804"/><path stroke="#bf8f00" d="M39 8h1" opacity=".667"/><path stroke="#584200" d="M40 8h1" opacity=".145"/><path stroke="#000" d="M41 8h1" opacity=".027"/><path stroke="#c89600" d="M5 9h1" opacity=".635"/><path stroke="#ecd594" d="M6 9h1"/><path stroke="#fff9e7" d="M7 9h1"/><path stroke="#ffff9e" d="M8 9h1"/><path stroke="#fffea9" d="M18 9h1"/><path stroke="#fcf7e4" d="M19 9h1"/><path stroke="#7ba972" d="M20 9h1"/><path stroke="#106b0c" d="M21 9h1"/><path stroke="#46a731" d="M22 9h1"/><path stroke="#85e55a" d="M23 9h1"/><path stroke="#45a62e" d="M24 9h1"/><path stroke="#43862e" d="M25 9h1"/><path stroke="#d2e482" d="M26 9h1"/><path stroke="#fcf98f" d="M27 9h1"/><path stroke="#ecd960" d="M29 9h1"/><path stroke="#e6cc4d" d="M30 9h1"/><path stroke="#dcb930" d="M31 9h1"/><path stroke="#d9b326" d="M32 9h1"/><path stroke="#dcb950" d="M36 9h1"/><path stroke="#efdfaf" d="M38 9h1"/><path stroke="#d6ac30" d="M39 9h1"/><path stroke="#8c6901" d="M40 9h1" opacity=".643"/><path stroke="#000" d="M41 9h1m-1 5h1" opacity=".149"/><path stroke="#fff7e7" d="M6 10h1"/><path stroke="#fffbc0" d="M7 10h1"/><path stroke="#f4f892" d="M18 10h1"/><path stroke="#4e8d32" d="M19 10h1"/><path stroke="#1b7611" d="M20 10h1"/><path stroke="#55b738" d="M21 10h1"/><path stroke="#96f360" d="M22 10h1"/><path stroke="#95f35d" d="M23 10h1"/><path stroke="#39981f" d="M24 10h1"/><path stroke="#40891a" d="M25 10h1"/><path stroke="#6e8100" d="M26 10h1"/><path stroke="#8a8900" d="M27 10h1"/><path stroke="#9a9922" d="M28 10h1"/><path stroke="#c5ab39" d="M29 10h1"/><path stroke="#e6cc7e" d="M30 10h1"/><path stroke="#ecd89e" d="M31 10h1"/><path stroke="#f2e5bd" d="M32 10h1"/><path stroke="#fcf8ed" d="M33 10h1"/><path stroke="#fffefd" d="M34 10h2"/><path stroke="#fff2d7" d="M36 10h1"/><path stroke="#fffffc" d="M37 10h2"/><path stroke="#d9b23f" d="M39 10h1"/><path stroke="#5a4402" d="M40 10h1" opacity=".722"/><path stroke="#030303" d="M41 10h1M7 39h1" opacity=".286"/><path stroke="#000" d="M42 10h1m-1 1h1M15 39h1m1 1h1" opacity=".055"/><path stroke="#fff5e2" d="M6 11h1"/><path stroke="#fffdab" d="M7 11h1"/><path stroke="#e3ee88" d="M17 11h1"/><path stroke="#337d1f" d="M18 11h1"/><path stroke="#207d14" d="M19 11h1"/><path stroke="#67c741" d="M20 11h1"/><path stroke="#9cf961" d="M21 11h1"/><path stroke="#9bf960" d="M22 11h1"/><path stroke="#89e955" d="M23 11h1"/><path stroke="#50a932" d="M24 11h1"/><path stroke="#45962e" d="M25 11h1"/><path stroke="#4ba033" d="M26 11h1"/><path stroke="#176a17" d="M27 11h1"/><path stroke="#287627" d="M28 11h1"/><path stroke="#51934e" d="M29 11h1"/><path stroke="#87b681" d="M30 11h1"/><path stroke="#d2e4c6" d="M31 11h1"/><path stroke="ivory" d="M32 11h1"/><path stroke="#ffffed" d="M33 11h1"/><path stroke="#ffffeb" d="M34 11h1"/><path stroke="#ffffea" d="M35 11h1"/><path stroke="#fc6" d="M36 11h1m-1 1h1m-1 1h1m-1 1h1"/><path stroke="#fffff8" d="M37 11h2"/><path stroke="#483601" d="M40 11h1" opacity=".725"/><path stroke="#020202" d="M41 11h1" opacity=".302"/><path stroke="#fff4de" d="M6 12h1"/><path stroke="#fffba9" d="M7 12h1"/><path stroke="#fffe98" d="M8 12h8m-6 9h5"/><path stroke="#c5db75" d="M16 12h1"/><path stroke="#1a6d0f" d="M17 12h1"/><path stroke="#258517" d="M18 12h1"/><path stroke="#75d44a" d="M19 12h1"/><path stroke="#a0fa63" d="M20 12h1"/><path stroke="#97f865" d="M21 12h1"/><path stroke="#92f361" d="M22 12h2"/><path stroke="#79d750" d="M24 12h1"/><path stroke="#66c343" d="M25 12h1"/><path stroke="#67c645" d="M26 12h1"/><path stroke="#59b83a" d="M27 12h1"/><path stroke="#4ead34" d="M28 12h1"/><path stroke="#208217" d="M29 12h1"/><path stroke="#0d6a0b" d="M30 12h1"/><path stroke="#388331" d="M31 12h1"/><path stroke="#8ab97a" d="M32 12h1"/><path stroke="#e1edc7" d="M33 12h1"/><path stroke="#ffffe1" d="M34 12h2"/><path stroke="#fffff3" d="M37 12h2"/><path stroke="#020202" d="M40 12h1" opacity=".62"/><path stroke="#030303" d="M41 12h1" opacity=".251"/><path stroke="#c29100" d="M5 13h1m0 19h1" opacity=".788"/><path stroke="#fff2d9" d="M6 13h1"/><path stroke="#fff6a4" d="M7 13h1"/><path stroke="#fff892" d="M8 13h7m-5 10h3"/><path stroke="#9abd58" d="M15 13h1"/><path stroke="#0d6507" d="M16 13h1"/><path stroke="#30901d" d="M17 13h1"/><path stroke="#81e053" d="M18 13h1"/><path stroke="#9ffa63" d="M19 13h1"/><path stroke="#96f662" d="M20 13h1"/><path stroke="#91f260" d="M21 13h1"/><path stroke="#93f460" d="M22 13h2m-3 1h1m-2 1h1"/><path stroke="#95f65f" d="M24 13h1"/><path stroke="#95f55e" d="M25 13h1"/><path stroke="#92f25b" d="M26 13h1"/><path stroke="#90f05a" d="M27 13h1"/><path stroke="#80e04e" d="M28 13h1"/><path stroke="#6ece44" d="M29 13h1"/><path stroke="#56b637" d="M30 13h1"/><path stroke="#1d7e15" d="M31 13h1"/><path stroke="#0e680c" d="M32 13h1"/><path stroke="#569849" d="M33 13h1"/><path stroke="#d6e6b5" d="M34 13h1"/><path stroke="#ffffd8" d="M35 13h1"/><path stroke="#ffe" d="M37 13h1"/><path stroke="#f9f2d0" d="M38 13h1"/><path stroke="#c29200" d="M39 13h1" opacity=".984"/><path stroke="#030303" d="M40 13h1" opacity=".588"/><path stroke="#000" d="M41 13h1" opacity=".184"/><path stroke="#000" d="M42 13h1M5 28h1m6 12h1m21 2h1m-3 1h1" opacity=".012"/><path stroke="#c39200" d="M5 14h1" opacity=".784"/><path stroke="#fff1d4" d="M6 14h1"/><path stroke="#fff29e" d="M7 14h1"/><path stroke="#fff38d" d="M8 14h3"/><path stroke="#f9e87c" d="M11 14h1"/><path stroke="#f2dd6b" d="M12 14h1"/><path stroke="#e2c546" d="M13 14h1"/><path stroke="#618813" d="M14 14h1"/><path stroke="#116f05" d="M15 14h1"/><path stroke="#409e23" d="M16 14h1"/><path stroke="#8be456" d="M17 14h1"/><path stroke="#a5fb69" d="M18 14h1"/><path stroke="#94f561" d="M19 14h1"/><path stroke="#91f25f" d="M20 14h1m-2 1h1"/><path stroke="#92f35f" d="M22 14h1"/><path stroke="#8dee5a" d="M23 14h1"/><path stroke="#87e755" d="M24 14h1"/><path stroke="#86e553" d="M25 14h1"/><path stroke="#86e655" d="M26 14h1"/><path stroke="#85e452" d="M27 14h1m-5 4h1"/><path stroke="#80e14c" d="M28 14h1"/><path stroke="#81e34b" d="M29 14h1"/><path stroke="#80e14b" d="M30 14h1"/><path stroke="#61c139" d="M31 14h1"/><path stroke="#45a52c" d="M32 14h1"/><path stroke="#0f6e0c" d="M33 14h1"/><path stroke="#418a35" d="M34 14h1"/><path stroke="#cde1a6" d="M35 14h1"/><path stroke="#ffffe8" d="M37 14h1"/><path stroke="#f2e6ae" d="M38 14h1"/><path stroke="#a47b00" d="M39 14h1M12 37h1" opacity=".933"/><path stroke="#030303" d="M40 14h1" opacity=".545"/><path stroke="#c49300" d="M5 15h1m-1 1h1m0 17h1m-1 1h1m-1 1h1" opacity=".78"/><path stroke="#f5dfa8" d="M6 15h1"/><path stroke="#ffeea6" d="M7 15h1"/><path stroke="#f5dd6e" d="M8 15h1"/><path stroke="#dcb42b" d="M9 15h1"/><path stroke="#d7b03c" d="M12 15h1"/><path stroke="#779737" d="M13 15h1"/><path stroke="#0c6307" d="M14 15h1"/><path stroke="#309222" d="M15 15h1"/><path stroke="#93ea65" d="M16 15h1"/><path stroke="#abff74" d="M17 15h1"/><path stroke="#93f562" d="M18 15h1"/><path stroke="#92f25f" d="M21 15h1"/><path stroke="#8bec58" d="M22 15h1"/><path stroke="#86e653" d="M23 15h1"/><path stroke="#86e552" d="M24 15h1"/><path stroke="#87e754" d="M25 15h1"/><path stroke="#85e451" d="M26 15h1"/><path stroke="#7dde4a" d="M27 15h1"/><path stroke="#79da46" d="M28 15h1"/><path stroke="#7adb47" d="M29 15h1"/><path stroke="#7bdc48" d="M30 15h1"/><path stroke="#7cdd45" d="M31 15h1"/><path stroke="#6acb39" d="M32 15h1"/><path stroke="#4bab2d" d="M33 15h1"/><path stroke="#0e6d0b" d="M34 15h1"/><path stroke="#499038" d="M35 15h1"/><path stroke="#d8bc56" d="M36 15h1"/><path stroke="#ffffe3" d="M37 15h1"/><path stroke="#ecd98e" d="M38 15h1"/><path stroke="#9a7400" d="M39 15h1" opacity=".91"/><path stroke="#020202" d="M40 15h1" opacity=".49"/><path stroke="#000" d="M41 15h1M8 40h1" opacity=".129"/><path stroke="#f2d898" d="M6 16h1"/><path stroke="#ffeaa5" d="M7 16h1"/><path stroke="#cf9e08" d="M8 16h1"/><path stroke="#dfbd59" d="M9 16h1"/><path stroke="#f9edcf" d="M10 16h1"/><path stroke="#fff9ec" d="M11 16h2"/><path stroke="#f9f7dc" d="M13 16h1"/><path stroke="#5a974e" d="M14 16h1"/><path stroke="#1f8017" d="M15 16h1"/><path stroke="#62c343" d="M16 16h1"/><path stroke="#95f562" d="M17 16h1"/><path stroke="#98f862" d="M18 16h1"/><path stroke="#92f35e" d="M19 16h1"/><path stroke="#92f25e" d="M20 16h1"/><path stroke="#8aea57" d="M21 16h1"/><path stroke="#84e452" d="M22 16h1"/><path stroke="#82e150" d="M23 16h1"/><path stroke="#83e352" d="M24 16h1m-4 1h1"/><path stroke="#80e04f" d="M25 16h1"/><path stroke="#78d947" d="M26 16h1"/><path stroke="#74d543" d="M27 16h1"/><path stroke="#76d744" d="M28 16h1"/><path stroke="#77d845" d="M29 16h1"/><path stroke="#74d541" d="M30 16h1"/><path stroke="#6fcf3b" d="M31 16h1"/><path stroke="#73d43d" d="M32 16h1"/><path stroke="#6acb38" d="M33 16h1"/><path stroke="#4aa92c" d="M34 16h1"/><path stroke="#0d6c0a" d="M35 16h1"/><path stroke="#578723" d="M36 16h1"/><path stroke="#e3eec6" d="M37 16h1"/><path stroke="#e6cc6f" d="M38 16h1"/><path stroke="#7a5b01" d="M39 16h1" opacity=".847"/><path stroke="#020202" d="M40 16h1" opacity=".439"/><path stroke="#000" d="M41 16h1M32 42h1" opacity=".11"/><path stroke="#c19100" d="M5 17h1" opacity=".725"/><path stroke="#f2d795" d="M6 17h1"/><path stroke="#f2d582" d="M7 17h1"/><path stroke="#fff9e9" d="M9 17h1"/><path stroke="#fffccc" d="M10 17h1"/><path stroke="#fffebc" d="M11 17h1"/><path stroke="#ffffb5" d="M12 17h2"/><path stroke="#fdfeb4" d="M14 17h1"/><path stroke="#78aa55" d="M15 17h1"/><path stroke="#16730f" d="M16 17h1"/><path stroke="#4bac30" d="M17 17h1"/><path stroke="#8ced5a" d="M18 17h1"/><path stroke="#9afa63" d="M19 17h1"/><path stroke="#87e756" d="M20 17h1"/><path stroke="#84e454" d="M22 17h1"/><path stroke="#86e656" d="M23 17h1"/><path stroke="#87e655" d="M24 17h1"/><path stroke="#83e450" d="M25 17h1"/><path stroke="#82e34d" d="M26 17h1"/><path stroke="#83e44e" d="M27 17h1"/><path stroke="#81e24c" d="M28 17h1"/><path stroke="#7adb45" d="M29 17h1"/><path stroke="#71d23c" d="M30 17h1"/><path stroke="#6ece39" d="M31 17h1"/><path stroke="#6dce3a" d="M32 17h1"/><path stroke="#73d43c" d="M33 17h1"/><path stroke="#66c736" d="M34 17h1"/><path stroke="#43a229" d="M35 17h1"/><path stroke="#0d6605" d="M36 17h1"/><path stroke="#8ab975" d="M37 17h1"/><path stroke="#dfbf52" d="M38 17h1"/><path stroke="#6f5301" d="M39 17h1" opacity=".816"/><path stroke="#020202" d="M40 17h1" opacity=".388"/><path stroke="#000" d="M41 17h1m-2 14h1m-2 4h1m-11 8h1" opacity=".086"/><path stroke="#b88a00" d="M5 18h1" opacity=".557"/><path stroke="#f2d691" d="M6 18h1"/><path stroke="#f2d27e" d="M7 18h1"/><path stroke="#d9b13a" d="M8 18h1"/><path stroke="#fff8e7" d="M9 18h1"/><path stroke="#ffffac" d="M10 18h6"/><path stroke="#9fc36b" d="M16 18h1"/><path stroke="#106d0b" d="M17 18h1"/><path stroke="#379924" d="M18 18h1"/><path stroke="#79d84e" d="M19 18h1"/><path stroke="#8fee5b" d="M20 18h1"/><path stroke="#86e756" d="M21 18h1"/><path stroke="#86e556" d="M22 18h1"/><path stroke="#72d247" d="M24 18h1"/><path stroke="#69c742" d="M25 18h1"/><path stroke="#63c03f" d="M26 18h1"/><path stroke="#60bd3d" d="M27 18h1"/><path stroke="#61be3e" d="M28 18h1"/><path stroke="#5fbd3d" d="M29 18h1"/><path stroke="#63c13e" d="M30 18h1"/><path stroke="#61c03a" d="M31 18h1"/><path stroke="#68c837" d="M32 18h1"/><path stroke="#71d23b" d="M33 18h1"/><path stroke="#74d53d" d="M34 18h1"/><path stroke="#51b52a" d="M35 18h1"/><path stroke="#17770a" d="M36 18h1"/><path stroke="#33812a" d="M37 18h1"/><path stroke="#a6a129" d="M38 18h1"/><path stroke="#473601" d="M39 18h1" opacity=".737"/><path stroke="#020202" d="M40 18h1" opacity=".337"/><path stroke="#000" d="M41 18h1" opacity=".067"/><path stroke="#bc8d00" d="M5 19h1m0 19h1" opacity=".545"/><path stroke="#efd081" d="M6 19h1"/><path stroke="#f2d27f" d="M7 19h1"/><path stroke="#d9b139" d="M8 19h1"/><path stroke="#fffad4" d="M9 19h1"/><path stroke="#ffffa2" d="M10 19h6"/><path stroke="#f1f1a0" d="M16 19h1"/><path stroke="#829a75" d="M17 19h1"/><path stroke="#136913" d="M18 19h1"/><path stroke="#298a1e" d="M19 19h1"/><path stroke="#6dcd46" d="M20 19h1"/><path stroke="#88e855" d="M21 19h1"/><path stroke="#83e251" d="M22 19h1"/><path stroke="#75d849" d="M23 19h1"/><path stroke="#3b9f28" d="M24 19h1"/><path stroke="#096c0b" d="M25 19h1"/><path stroke="#0c6711" d="M26 19h1"/><path stroke="#106416" d="M27 19h1"/><path stroke="#0f6213" d="M28 19h1"/><path stroke="#0b610c" d="M29 19h1"/><path stroke="#0b690a" d="M30 19h1"/><path stroke="#197b12" d="M31 19h1"/><path stroke="#48a72d" d="M32 19h1"/><path stroke="#5fbf38" d="M33 19h1"/><path stroke="#5fc731" d="M34 19h1"/><path stroke="#5dc92f" d="M35 19h1"/><path stroke="#329518" d="M36 19h1"/><path stroke="#0d6a0a" d="M37 19h1"/><path stroke="#628106" d="M38 19h1"/><path stroke="#271e02" d="M39 19h1" opacity=".675"/><path stroke="#030303" d="M40 19h1" opacity=".275"/><path stroke="#000" d="M41 19h1M22 43h1" opacity=".047"/><path stroke="#be8e00" d="M5 20h1m-1 1h1" opacity=".541"/><path stroke="#e6c05c" d="M6 20h1"/><path stroke="#e9c567" d="M7 20h1"/><path stroke="#d9b039" d="M8 20h1"/><path stroke="#fff8d0" d="M9 20h1"/><path stroke="#f8f899" d="M15 20h1"/><path stroke="#abab9c" d="M16 20h1"/><path stroke="#e9e9e9" d="M17 20h1"/><path stroke="#dae9da" d="M18 20h1"/><path stroke="#206f1f" d="M19 20h1"/><path stroke="#1c7c15" d="M20 20h1"/><path stroke="#5dbf3e" d="M21 20h1"/><path stroke="#81e350" d="M22 20h1"/><path stroke="#74d647" d="M23 20h1"/><path stroke="#329122" d="M24 20h1"/><path stroke="#216811" d="M25 20h1"/><path stroke="#7c842a" d="M26 20h1"/><path stroke="#a6ceb3" d="M27 20h1"/><path stroke="#85c6ac" d="M28 20h1"/><path stroke="#6eb49f" d="M29 20h1"/><path stroke="#4a8d66" d="M30 20h1"/><path stroke="#266b29" d="M31 20h1"/><path stroke="#0e630d" d="M32 20h1"/><path stroke="#319122" d="M33 20h1"/><path stroke="#4cb02d" d="M34 20h1"/><path stroke="#55c22c" d="M35 20h1"/><path stroke="#48af22" d="M36 20h1"/><path stroke="#1a7d11" d="M37 20h1"/><path stroke="#397100" d="M38 20h1"/><path stroke="#021a02" d="M39 20h1" opacity=".667"/><path stroke="#e6bf59" d="M6 21h2"/><path stroke="#dcb646" d="M8 21h1"/><path stroke="#fff8cd" d="M9 21h1"/><path stroke="#b4b496" d="M15 21h1"/><path stroke="#e0e0e0" d="M16 21h1"/><path stroke="#bfbebd" d="M18 21h1"/><path stroke="#87a5b6" d="M19 21h1"/><path stroke="#31803f" d="M20 21h1"/><path stroke="#1a7915" d="M21 21h1"/><path stroke="#54b535" d="M22 21h1"/><path stroke="#75d647" d="M23 21h1"/><path stroke="#389925" d="M24 21h1"/><path stroke="#457c2d" d="M25 21h1"/><path stroke="#d4b579" d="M26 21h1"/><path stroke="#fffffd" d="M27 21h1"/><path stroke="#e2ffff" d="M28 21h1m-8 6h1"/><path stroke="#c6fcff" d="M29 21h1"/><path stroke="#c1f7ff" d="M30 21h1"/><path stroke="#9fd8e2" d="M31 21h1"/><path stroke="#427a50" d="M32 21h1"/><path stroke="#146413" d="M33 21h1"/><path stroke="#308d20" d="M34 21h1"/><path stroke="#4eb42e" d="M35 21h1"/><path stroke="#4ebf27" d="M36 21h1"/><path stroke="#248c14" d="M37 21h1"/><path stroke="#106200" d="M38 21h1" opacity=".996"/><path stroke="#023202" d="M39 21h1" opacity=".725"/><path stroke="#000" d="M40 21h1m-3 15h1" opacity=".169"/><path stroke="#000" d="M41 21h1m-2 14h1m-2 2h1m-24 3h1m0 1h1" opacity=".008"/><path stroke="#af8300" d="M5 22h1" opacity=".365"/><path stroke="#e6bf57" d="M6 22h2"/><path stroke="#e6c76e" d="M8 22h1"/><path stroke="#fff7ca" d="M9 22h1"/><path stroke="#fffb95" d="M10 22h4"/><path stroke="#d8d593" d="M14 22h1"/><path stroke="#c4c4c4" d="M15 22h1"/><path stroke="#c5c3c2" d="M17 22h1"/><path stroke="#91aac3" d="M18 22h1"/><path stroke="#dbf0ff" d="M19 22h1m11 11h1"/><path stroke="#f9fbf9" d="M20 22h1"/><path stroke="#5f9a5f" d="M21 22h1"/><path stroke="#1a7615" d="M22 22h1"/><path stroke="#3ea029" d="M23 22h1"/><path stroke="#298a1d" d="M24 22h1"/><path stroke="#3d873d" d="M25 22h1"/><path stroke="#cee2ce" d="M26 22h1"/><path stroke="#f3ffff" d="M27 22h1m-10 5h1"/><path stroke="#cfffff" d="M28 22h1m-7 8h1"/><path stroke="#c7fcff" d="M29 22h1"/><path stroke="#c4f7ff" d="M30 22h1"/><path stroke="#a0c9d4" d="M31 22h1"/><path stroke="#b7ebff" d="M32 22h1m-2 4h1"/><path stroke="#447a52" d="M33 22h1"/><path stroke="#0c630c" d="M34 22h1"/><path stroke="#369824" d="M35 22h1"/><path stroke="#3ab120" d="M36 22h1"/><path stroke="#269715" d="M37 22h1"/><path stroke="#076500" d="M38 22h1" opacity=".996"/><path stroke="#013f01" d="M39 22h1" opacity=".745"/><path stroke="#000" d="M40 22h1m-2 12h1" opacity=".145"/><path stroke="#ae8300" d="M5 23h1" opacity=".294"/><path stroke="#e6be55" d="M6 23h2"/><path stroke="#e6c76d" d="M8 23h1"/><path stroke="#fff6b6" d="M9 23h1"/><path stroke="#fdf692" d="M13 23h1"/><path stroke="#aaa99e" d="M14 23h1"/><path stroke="#f9f9f9" d="M15 23h1"/><path stroke="#e1dfdc" d="M16 23h1"/><path stroke="#90a3b7" d="M17 23h1"/><path stroke="#cde8ff" d="M18 23h1"/><path stroke="#fdfefd" d="M21 23h1"/><path stroke="#7fb07f" d="M22 23h1"/><path stroke="#106d0f" d="M23 23h1"/><path stroke="#10720f" d="M24 23h1"/><path stroke="#3c8b3d" d="M25 23h1"/><path stroke="#bce2ce" d="M26 23h1"/><path stroke="#d4ffff" d="M27 23h1m0 1h1"/><path stroke="#ceffff" d="M28 23h1"/><path stroke="#cdffff" d="M29 23h1"/><path stroke="#748c91" d="M30 23h1"/><path stroke="#2a2625" d="M31 23h1"/><path stroke="#89b0cc" d="M32 23h1"/><path stroke="#afe4f3" d="M33 23h1"/><path stroke="#2f6a32" d="M34 23h1"/><path stroke="#28861b" d="M35 23h1"/><path stroke="#259616" d="M36 23h1"/><path stroke="#2b9d17" d="M37 23h1"/><path stroke="#0b6d03" d="M38 23h1" opacity=".996"/><path stroke="#014801" d="M39 23h1" opacity=".769"/><path stroke="#000" d="M40 23h1" opacity=".122"/><path stroke="#b38600" d="M5 24h1" opacity=".286"/><path stroke="#dcb033" d="M6 24h2"/><path stroke="#e6c76c" d="M8 24h1"/><path stroke="#fff5b3" d="M9 24h1"/><path stroke="#fff58f" d="M10 24h3"/><path stroke="#d9d28f" d="M13 24h1"/><path stroke="#c8c8c8" d="M14 24h1"/><path stroke="#fefdfd" d="M15 24h1"/><path stroke="#a9adb1" d="M16 24h1"/><path stroke="#abcef0" d="M17 24h1"/><path stroke="#feffff" d="M18 24h1m2 0h1m11 8h1"/><path stroke="#fcffff" d="M22 24h1"/><path stroke="#9fc9a6" d="M23 24h1"/><path stroke="#0c6d0d" d="M24 24h1"/><path stroke="#308737" d="M25 24h1"/><path stroke="#a7ddc7" d="M26 24h1"/><path stroke="#d3ffff" d="M27 24h1m-8 6h1"/><path stroke="#799295" d="M29 24h1"/><path stroke="#26211e" d="M30 24h1"/><path stroke="#56697f" d="M31 24h1"/><path stroke="#a9d5f5" d="M32 24h1"/><path stroke="#bef2ff" d="M33 24h1M22 37h1"/><path stroke="#669f86" d="M34 24h1"/><path stroke="#0c600c" d="M35 24h1"/><path stroke="#1b8412" d="M36 24h1"/><path stroke="#269815" d="M37 24h1"/><path stroke="#0c7204" d="M38 24h1" opacity=".996"/><path stroke="#004e00" d="M39 24h1" opacity=".8"/><path stroke="#002a00" d="M40 24h1" opacity=".161"/><path stroke="#b68800" d="M5 25h1m-1 1h1" opacity=".282"/><path stroke="#d9ab28" d="M6 25h2"/><path stroke="#e9cc77" d="M8 25h1"/><path stroke="#fff3b0" d="M9 25h1"/><path stroke="#fff28c" d="M10 25h3"/><path stroke="#b4b08f" d="M13 25h1"/><path stroke="#eaeaea" d="M14 25h1"/><path stroke="#dddad9" d="M15 25h1"/><path stroke="#8fa5bb" d="M16 25h1"/><path stroke="#dff3ff" d="M17 25h1"/><path stroke="#f6ffff" d="M21 25h1"/><path stroke="#e8ffff" d="M22 25h1"/><path stroke="#e3ffff" d="M23 25h1m-2 1h1"/><path stroke="#b1dfca" d="M24 25h1"/><path stroke="#6fb381" d="M25 25h1"/><path stroke="#c0efe4" d="M26 25h1"/><path stroke="#d8ffff" d="M27 25h1"/><path stroke="#7a9292" d="M28 25h1"/><path stroke="#26201d" d="M29 25h1m-2 1h1"/><path stroke="#586b81" d="M30 25h1"/><path stroke="#a2d8ff" d="M31 25h1"/><path stroke="#cff4ff" d="M32 25h1"/><path stroke="#d4f5ff" d="M33 25h1"/><path stroke="#a1dce0" d="M34 25h1"/><path stroke="#226926" d="M35 25h1"/><path stroke="#10770c" d="M36 25h1"/><path stroke="#198d11" d="M37 25h1"/><path stroke="#0b7506" d="M38 25h1" opacity=".996"/><path stroke="#004e00" d="M39 25h1" opacity=".792"/><path stroke="#002700" d="M40 25h1" opacity=".153"/><path stroke="#d9aa27" d="M6 26h2"/><path stroke="#f2dd9e" d="M8 26h1"/><path stroke="#fff1ae" d="M9 26h1"/><path stroke="#ffef89" d="M10 26h3"/><path stroke="#a8a699" d="M13 26h1"/><path stroke="#f6f6f6" d="M14 26h1"/><path stroke="#bcbab9" d="M15 26h1"/><path stroke="#9abcdd" d="M16 26h1"/><path stroke="#f7fcff" d="M17 26h1"/><path stroke="#f1ffff" d="M21 26h1"/><path stroke="#e1ffff" d="M23 26h1"/><path stroke="#deffff" d="M24 26h1"/><path stroke="#dcfdfc" d="M25 26h1"/><path stroke="#daffff" d="M26 26h1m-6 2h2m-4 2h1"/><path stroke="#7c9393" d="M27 26h1"/><path stroke="#576a80" d="M29 26h1"/><path stroke="#a7dbff" d="M30 26h1m1 3h1"/><path stroke="#b9e7ff" d="M32 26h1"/><path stroke="#e9fcff" d="M33 26h1"/><path stroke="#c0f3ff" d="M34 26h1m-12 6h1"/><path stroke="#3f7d4d" d="M35 26h1"/><path stroke="#086b08" d="M36 26h1"/><path stroke="#107d0d" d="M37 26h1"/><path stroke="#097105" d="M38 26h1" opacity=".996"/><path stroke="#004c00" d="M39 26h1" opacity=".773"/><path stroke="#001400" d="M40 26h1" opacity=".118"/><path stroke="#000" d="M5 27h1m30 13h1" opacity=".035"/><path stroke="#d9aa26" d="M6 27h2"/><path stroke="#f2db9b" d="M8 27h1"/><path stroke="#ffed98" d="M9 27h1"/><path stroke="#ffec86" d="M10 27h3"/><path stroke="#ababab" d="M13 27h1"/><path stroke="#f1f0f0" d="M14 27h1"/><path stroke="#a4a6a9" d="M15 27h1"/><path stroke="#aed2f2" d="M16 27h1"/><path stroke="#faffff" d="M17 27h1"/><path stroke="#f4ffff" d="M20 27h1"/><path stroke="#dfffff" d="M22 27h1m0 1h1"/><path stroke="#dff" d="M23 27h1"/><path stroke="#d3f6f6" d="M24 27h1"/><path stroke="#7e9292" d="M25 27h1"/><path stroke="#5f6d6d" d="M26 27h1"/><path stroke="#2b2927" d="M27 27h1"/><path stroke="#596d82" d="M28 27h1"/><path stroke="#a9deff" d="M29 27h1"/><path stroke="#bef3ff" d="M30 27h1"/><path stroke="#b6eaff" d="M31 27h1"/><path stroke="#ade1ff" d="M32 27h1"/><path stroke="#eefdff" d="M33 27h1"/><path stroke="#ccf8ff" d="M34 27h1"/><path stroke="#5b9f7c" d="M35 27h1"/><path stroke="#066706" d="M36 27h1"/><path stroke="#0c700b" d="M37 27h1"/><path stroke="#066a04" d="M38 27h1" opacity=".996"/><path stroke="#004700" d="M39 27h1" opacity=".718"/><path stroke="#000" d="M40 27h1M25 43h4" opacity=".098"/><path stroke="#d9a924" d="M6 28h1"/><path stroke="#cf9d09" d="M7 28h1"/><path stroke="#f2db99" d="M8 28h1"/><path stroke="#ffeb95" d="M9 28h1"/><path stroke="#ffe983" d="M10 28h3"/><path stroke="#b3b3b3" d="M13 28h1"/><path stroke="#edeceb" d="M14 28h1"/><path stroke="#9ba7b1" d="M15 28h1"/><path stroke="#b7c6d3" d="M16 28h1"/><path stroke="#ffa74d" d="M17 28h1"/><path stroke="#f8e6ce" d="M18 28h1"/><path stroke="azure" d="M20 28h1"/><path stroke="#849b9b" d="M24 28h1"/><path stroke="#807c7c" d="M25 28h1"/><path stroke="#7b7979" d="M26 28h1"/><path stroke="#2e2d2c" d="M27 28h1"/><path stroke="#434b53" d="M28 28h1"/><path stroke="#4b5455" d="M29 28h1"/><path stroke="#454b4b" d="M30 28h1"/><path stroke="#738fa1" d="M31 28h1"/><path stroke="#ace2ff" d="M32 28h1"/><path stroke="#edffff" d="M33 28h1"/><path stroke="#f98564" d="M34 28h1"/><path stroke="#965a27" d="M35 28h1"/><path stroke="#106713" d="M36 28h1"/><path stroke="#0a6c0c" d="M37 28h1"/><path stroke="#056705" d="M38 28h1"/><path stroke="#004100" d="M39 28h1" opacity=".659"/><path stroke="#f5e0a3" d="M8 29h1"/><path stroke="#ffe992" d="M9 29h1"/><path stroke="#ffe680" d="M10 29h3"/><path stroke="#b2b2b2" d="M13 29h1"/><path stroke="#e8e6e5" d="M14 29h1"/><path stroke="#9aa7b3" d="M15 29h1"/><path stroke="#b3c9d6" d="M16 29h1"/><path stroke="#f6a750" d="M17 29h1"/><path stroke="#f6e8d3" d="M18 29h1"/><path stroke="#ecffff" d="M20 29h1"/><path stroke="#d5ffff" d="M21 29h2"/><path stroke="#d9ffff" d="M23 29h1"/><path stroke="#849f9f" d="M24 29h1"/><path stroke="#635e5d" d="M25 29h1"/><path stroke="#64615e" d="M26 29h1"/><path stroke="#40484f" d="M27 29h1"/><path stroke="#4f5e6a" d="M28 29h1"/><path stroke="#4e5c69" d="M29 29h1"/><path stroke="#4a5661" d="M30 29h1"/><path stroke="#6f8dac" d="M31 29h1"/><path stroke="#efffff" d="M33 29h1"/><path stroke="#fc8362" d="M34 29h1"/><path stroke="#a45e32" d="M35 29h1"/><path stroke="#18671d" d="M36 29h1"/><path stroke="#09690b" d="M37 29h1"/><path stroke="#0e610e" d="M38 29h1" opacity=".996"/><path stroke="#002f00" d="M39 29h1" opacity=".549"/><path stroke="#000" d="M40 29h1m-1 1h1m-27 9h1m9 4h1" opacity=".09"/><path stroke="#fff0c6" d="M8 30h1"/><path stroke="#ffe68b" d="M9 30h1"/><path stroke="#ffe37d" d="M10 30h3"/><path stroke="#a4a4a4" d="M13 30h1"/><path stroke="#e2e2e0" d="M14 30h1"/><path stroke="#999b9f" d="M15 30h1"/><path stroke="#a8d8f7" d="M16 30h1"/><path stroke="#d1ffff" d="M17 30h1"/><path stroke="#d2ffff" d="M18 30h1"/><path stroke="#d0ffff" d="M21 30h1"/><path stroke="#cefeff" d="M23 30h1"/><path stroke="#c4f6f8" d="M24 30h1"/><path stroke="#6c8598" d="M25 30h1"/><path stroke="#586e88" d="M26 30h1"/><path stroke="#93c3f5" d="M27 30h1"/><path stroke="#b5ecff" d="M28 30h1"/><path stroke="#b9efff" d="M29 30h1"/><path stroke="#b4ebff" d="M30 30h1"/><path stroke="#aae0ff" d="M31 30h1"/><path stroke="#b2deff" d="M32 30h1"/><path stroke="#f8ffff" d="M33 30h1"/><path stroke="#e5ffff" d="M34 30h1m-3 5h1"/><path stroke="#77b3a2" d="M35 30h1"/><path stroke="#176719" d="M36 30h1"/><path stroke="#0a6a0b" d="M37 30h1"/><path stroke="#1c5a1e" d="M38 30h1" opacity=".984"/><path stroke="#000a00" d="M39 30h1" opacity=".4"/><path stroke="#ca9700" d="M6 31h1" opacity=".949"/><path stroke="#ffefc3" d="M8 31h1"/><path stroke="#ffe07a" d="M9 31h4"/><path stroke="#9a9891" d="M13 31h1"/><path stroke="#dededd" d="M14 31h1"/><path stroke="#a1a09f" d="M15 31h1"/><path stroke="#9ec6e2" d="M16 31h1"/><path stroke="#cafeff" d="M17 31h1"/><path stroke="#cafdff" d="M18 31h1m1 0h2"/><path stroke="#c9fdff" d="M19 31h1"/><path stroke="#c8fcff" d="M22 31h1"/><path stroke="#c6f9ff" d="M23 31h1m-6 1h1"/><path stroke="#c5f9ff" d="M24 31h1m-7 2h1"/><path stroke="#c3f8ff" d="M25 31h1"/><path stroke="#b7ecff" d="M26 31h1"/><path stroke="#b4e8ff" d="M27 31h1m-7 3h1"/><path stroke="#b6e9ff" d="M28 31h1m-4 2h1"/><path stroke="#b1e4ff" d="M29 31h1m-2 1h1"/><path stroke="#ade0ff" d="M30 31h1m-5 3h1"/><path stroke="#a3d8ff" d="M31 31h1m-4 3h1"/><path stroke="#cceaff" d="M32 31h1"/><path stroke="#defdff" d="M34 31h1"/><path stroke="#558e6b" d="M35 31h1"/><path stroke="#0a680b" d="M36 31h1"/><path stroke="#0a6a0c" d="M37 31h1"/><path stroke="#1d491d" d="M38 31h1" opacity=".945"/><path stroke="#000" d="M39 31h1" opacity=".353"/><path stroke="#ffefc1" d="M8 32h1"/><path stroke="#fd7" d="M9 32h4"/><path stroke="#9d957d" d="M13 32h1"/><path stroke="#d3d3d3" d="M14 32h1"/><path stroke="#b2b0ad" d="M15 32h1"/><path stroke="#8da7bc" d="M16 32h1"/><path stroke="#c2f7ff" d="M17 32h1"/><path stroke="#c3f6ff" d="M19 32h1m1 0h1"/><path stroke="#c3f7ff" d="M20 32h1"/><path stroke="#c2f5ff" d="M22 32h1"/><path stroke="#bef1ff" d="M24 32h1m-6 1h1"/><path stroke="#bcefff" d="M25 32h1m-4 1h1"/><path stroke="#baedff" d="M26 32h1"/><path stroke="#b5e8ff" d="M27 32h1m-6 2h1"/><path stroke="#acdfff" d="M29 32h1m-2 1h1"/><path stroke="#a6daff" d="M30 32h1m-2 1h1"/><path stroke="#aadaff" d="M31 32h1"/><path stroke="#f2fbff" d="M32 32h1"/><path stroke="#d0fdff" d="M34 32h1"/><path stroke="#336e3b" d="M35 32h1"/><path stroke="#09690a" d="M36 32h1"/><path stroke="#377a42" d="M37 32h1"/><path stroke="#212c20" d="M38 32h1" opacity=".82"/><path stroke="#000" d="M39 32h1" opacity=".302"/><path stroke="#000" d="M40 32h1M23 43h1" opacity=".075"/><path stroke="#cf9e0c" d="M7 33h1"/><path stroke="#ffeebe" d="M8 33h1"/><path stroke="#ffda74" d="M9 33h4"/><path stroke="#b6a472" d="M13 33h1"/><path stroke="#b1b1b1" d="M14 33h1"/><path stroke="#cac9c8" d="M15 33h1"/><path stroke="#858c91" d="M16 33h1"/><path stroke="#aee1fa" d="M17 33h1"/><path stroke="#bdf0ff" d="M20 33h2"/><path stroke="#bef" d="M23 33h1"/><path stroke="#b8ebff" d="M24 33h1"/><path stroke="#b3e6ff" d="M26 33h1"/><path stroke="#b0e2ff" d="M27 33h1"/><path stroke="#9fd5ff" d="M30 33h1"/><path stroke="#f0feff" d="M33 33h1"/><path stroke="#8cc1b3" d="M34 33h1"/><path stroke="#166419" d="M35 33h1"/><path stroke="#126f16" d="M36 33h1"/><path stroke="#51705e" d="M37 33h1"/><path stroke="#151514" d="M38 33h1" opacity=".565"/><path stroke="#000" d="M40 33h1m-8 9h1" opacity=".051"/><path stroke="#d9ae2f" d="M7 34h1"/><path stroke="#ffecb7" d="M8 34h1"/><path stroke="#ffd771" d="M9 34h4"/><path stroke="#e7c56d" d="M13 34h1"/><path stroke="#8a8987" d="M14 34h1"/><path stroke="#ccc" d="M15 34h1"/><path stroke="#9b9897" d="M16 34h1"/><path stroke="#8ca8ba" d="M17 34h1"/><path stroke="#bdf4ff" d="M18 34h1"/><path stroke="#c2f4ff" d="M19 34h1"/><path stroke="#bcedff" d="M20 34h1"/><path stroke="#b4e7ff" d="M23 34h1"/><path stroke="#b3e5ff" d="M24 34h1"/><path stroke="#b0e3ff" d="M25 34h1"/><path stroke="#a8dcff" d="M27 34h1"/><path stroke="#a3d6ff" d="M29 34h1"/><path stroke="#d8efff" d="M30 34h1"/><path stroke="#fdfdff" d="M32 34h1"/><path stroke="#d6ffff" d="M33 34h1"/><path stroke="#577265" d="M34 34h1"/><path stroke="#518160" d="M35 34h1"/><path stroke="#729b8b" d="M36 34h1"/><path stroke="#363939" d="M37 34h1" opacity=".906"/><path stroke="#010101" d="M38 34h1m-2 2h1" opacity=".325"/><path stroke="#d9ae2e" d="M7 35h1"/><path stroke="#ffe7a6" d="M8 35h1"/><path stroke="#ffd46e" d="M9 35h4"/><path stroke="#fbd16c" d="M13 35h1"/><path stroke="#a0906a" d="M14 35h1"/><path stroke="#a9a9a9" d="M15 35h1"/><path stroke="#c0bfbf" d="M16 35h1"/><path stroke="#7e7f7f" d="M17 35h1"/><path stroke="#9fc8dd" d="M18 35h1"/><path stroke="#bef4ff" d="M19 35h1"/><path stroke="#caf4ff" d="M20 35h1"/><path stroke="#caf0ff" d="M21 35h1"/><path stroke="#b5e5ff" d="M22 35h1"/><path stroke="#aadfff" d="M23 35h1"/><path stroke="#a8ddff" d="M24 35h1"/><path stroke="#a5deff" d="M25 35h1"/><path stroke="#a2ddff" d="M26 35h1"/><path stroke="#a8d9ff" d="M27 35h1"/><path stroke="#bde3ff" d="M28 35h1"/><path stroke="#eaf7ff" d="M29 35h1"/><path stroke="#fefeff" d="M31 35h1"/><path stroke="#82a2a1" d="M33 35h1"/><path stroke="#6c6a7b" d="M34 35h1"/><path stroke="#d4d4ff" d="M35 35h1m-4 3h1"/><path stroke="#76768c" d="M36 35h1"/><path stroke="#1a1a19" d="M37 35h1" opacity=".588"/><path stroke="#000" d="M38 35h1" opacity=".255"/><path stroke="#bb8c00" d="M6 36h1" opacity=".612"/><path stroke="#d9ae2d" d="M7 36h1"/><path stroke="#ffe5a3" d="M8 36h1"/><path stroke="#ffd16b" d="M9 36h2"/><path stroke="#fcce65" d="M11 36h1"/><path stroke="#efc04a" d="M12 36h1"/><path stroke="#e2b22f" d="M13 36h1"/><path stroke="#c49718" d="M14 36h1"/><path stroke="#7a7568" d="M15 36h1"/><path stroke="#b4b4b4" d="M16 36h1"/><path stroke="#acaaaa" d="M17 36h1"/><path stroke="#74787b" d="M18 36h1"/><path stroke="#a1cadb" d="M19 36h1"/><path stroke="#bbf3ff" d="M20 36h1"/><path stroke="#c9f1ff" d="M21 36h1"/><path stroke="#e0f9ff" d="M22 36h1"/><path stroke="#e1f8ff" d="M23 36h1"/><path stroke="#d8f3ff" d="M24 36h1"/><path stroke="#d8d0d4" d="M25 36h1"/><path stroke="#dfc9c9" d="M26 36h1"/><path stroke="#eefaff" d="M27 36h1"/><path stroke="#f5fdff" d="M30 36h1"/><path stroke="#dbffff" d="M31 36h1"/><path stroke="#83a3a2" d="M32 36h1"/><path stroke="#5e5d6a" d="M33 36h1"/><path stroke="#cdccfb" d="M34 36h1"/><path stroke="#a6a6cc" d="M35 36h1"/><path stroke="#2a2a2a" d="M36 36h1" opacity=".82"/><path stroke="#ba8c00" d="M6 37h1" opacity=".549"/><path stroke="#d6a922" d="M7 37h1"/><path stroke="#ecc967" d="M8 37h1"/><path stroke="#dfad27" d="M9 37h1"/><path stroke="#d2a00d" d="M10 37h1"/><path stroke="#846301" d="M13 37h1" opacity=".871"/><path stroke="#533e01" d="M14 37h1" opacity=".78"/><path stroke="#2d2a22" d="M15 37h1" opacity=".769"/><path stroke="#777" d="M16 37h1" opacity=".992"/><path stroke="#b0b0b0" d="M17 37h1"/><path stroke="#a3a1a1" d="M18 37h1"/><path stroke="#707071" d="M19 37h1"/><path stroke="#8ca9b3" d="M20 37h1"/><path stroke="#b4e7fa" d="M21 37h1"/><path stroke="#cef3ff" d="M23 37h1"/><path stroke="#e3fcff" d="M24 37h1"/><path stroke="#fd7149" d="M25 37h1"/><path stroke="#ff430f" d="M26 37h1"/><path stroke="#f3f7f9" d="M27 37h1"/><path stroke="#eafcff" d="M28 37h1"/><path stroke="#dcffff" d="M29 37h1"/><path stroke="#b8e7ec" d="M30 37h1"/><path stroke="#6c8381" d="M31 37h1"/><path stroke="#646373" d="M32 37h1"/><path stroke="#cdcdfc" d="M33 37h1"/><path stroke="#b6b6de" d="M34 37h1"/><path stroke="#39393c" d="M35 37h1" opacity=".918"/><path stroke="#080808" d="M36 37h1" opacity=".4"/><path stroke="#000" d="M37 37h1" opacity=".227"/><path stroke="#000" d="M38 37h1M7 40h1" opacity=".078"/><path stroke="#c79500" d="M7 38h1" opacity=".961"/><path stroke="#9e7700" d="M8 38h1" opacity=".89"/><path stroke="#795b01" d="M9 38h1" opacity=".851"/><path stroke="#453401" d="M10 38h1" opacity=".749"/><path stroke="#020202" d="M11 38h1" opacity=".627"/><path stroke="#030303" d="M12 38h1" opacity=".569"/><path stroke="#020202" d="M13 38h1" opacity=".486"/><path stroke="#020202" d="M14 38h1" opacity=".396"/><path stroke="#030303" d="M15 38h1" opacity=".322"/><path stroke="#3c3c3c" d="M16 38h1" opacity=".545"/><path stroke="#747474" d="M17 38h1" opacity=".992"/><path stroke="#a2a2a2" d="M18 38h2"/><path stroke="#777573" d="M20 38h1"/><path stroke="#6c7678" d="M21 38h1"/><path stroke="#88a4ac" d="M22 38h1"/><path stroke="#a6d4e1" d="M23 38h1"/><path stroke="#b2e9f6" d="M24 38h1"/><path stroke="#c7cbca" d="M25 38h1"/><path stroke="#cec5c0" d="M26 38h1"/><path stroke="#b4e7f3" d="M27 38h1"/><path stroke="#9ec8cc" d="M28 38h1"/><path stroke="#768f8f" d="M29 38h1"/><path stroke="#53585c" d="M30 38h1"/><path stroke="#8c89a5" d="M31 38h1"/><path stroke="#afafd6" d="M33 38h1"/><path stroke="#3e3e43" d="M34 38h1" opacity=".929"/><path stroke="#111" d="M35 38h1" opacity=".478"/><path stroke="#000" d="M36 38h1" opacity=".263"/><path stroke="#000" d="M37 38h1M9 40h1m9 1h1" opacity=".114"/><path stroke="#000" d="M38 38h1m-20 4h1m1 1h1" opacity=".02"/><path stroke="#000" d="M6 39h1m13 3h1" opacity=".063"/><path stroke="#030303" d="M8 39h1" opacity=".475"/><path stroke="#020202" d="M9 39h1" opacity=".459"/><path stroke="#030303" d="M11 39h1" opacity=".271"/><path stroke="#000" d="M12 39h1" opacity=".18"/><path stroke="#000" d="M13 39h1m21 1h1m-15 2h1" opacity=".125"/><path stroke="#000" d="M16 39h1m13 4h1" opacity=".071"/><path stroke="#3e3e3e" d="M17 39h1" opacity=".384"/><path stroke="#606060" d="M18 39h1" opacity=".918"/><path stroke="#878787" d="M19 39h1"/><path stroke="#a1a1a2" d="M20 39h1"/><path stroke="#9a989d" d="M21 39h1"/><path stroke="#7f7d83" d="M22 39h1"/><path stroke="#6a6a6e" d="M23 39h1"/><path stroke="#676b6f" d="M24 39h1"/><path stroke="#616f73" d="M25 39h1"/><path stroke="#5f6f75" d="M26 39h1"/><path stroke="#63666d" d="M27 39h1"/><path stroke="#6d6b79" d="M28 39h1"/><path stroke="#908ea8" d="M29 39h1"/><path stroke="#c7c6f1" d="M30 39h1"/><path stroke="#cbcbfa" d="M31 39h1"/><path stroke="#8686a0" d="M32 39h1"/><path stroke="#303031" d="M33 39h1" opacity=".863"/><path stroke="#0d0d0d" d="M34 39h1" opacity=".439"/><path stroke="#000" d="M35 39h1" opacity=".267"/><path stroke="#000" d="M36 39h1" opacity=".133"/><path stroke="#000" d="M37 39h1" opacity=".031"/><path stroke="#000" d="M10 40h1" opacity=".082"/><path stroke="#222" d="M18 40h1" opacity=".224"/><path stroke="#494949" d="M19 40h1" opacity=".702"/><path stroke="#676769" d="M20 40h1" opacity=".98"/><path stroke="#89898e" d="M21 40h1"/><path stroke="#a5a5b2" d="M22 40h1"/><path stroke="#b3b3c5" d="M23 40h1"/><path stroke="#b1b0c5" d="M24 40h1"/><path stroke="#b0afc8" d="M25 40h1"/><path stroke="#b5b4d1" d="M26 40h1"/><path stroke="#bebee1" d="M27 40h1"/><path stroke="#cacaf3" d="M28 40h1"/><path stroke="#b9b9df" d="M29 40h1"/><path stroke="#8e8ea8" d="M30 40h1"/><path stroke="#47474e" d="M31 40h1" opacity=".949"/><path stroke="#20201f" d="M32 40h1" opacity=".686"/><path stroke="#020202" d="M33 40h1" opacity=".345"/><path stroke="#000" d="M34 40h1" opacity=".243"/><path stroke="#212121" d="M20 41h1" opacity=".314"/><path stroke="#3d3d3d" d="M21 41h1" opacity=".663"/><path stroke="#4c4c4e" d="M22 41h1" opacity=".859"/><path stroke="#5d5d62" d="M23 41h1" opacity=".953"/><path stroke="#72727b" d="M24 41h1"/><path stroke="#777784" d="M25 41h1"/><path stroke="#777785" d="M26 41h1"/><path stroke="#6e6e7b" d="M27 41h1" opacity=".996"/><path stroke="#505057" d="M28 41h1" opacity=".937"/><path stroke="#38383b" d="M29 41h1" opacity=".843"/><path stroke="#1e1e1c" d="M30 41h1" opacity=".62"/><path stroke="#0a0a09" d="M31 41h1" opacity=".388"/><path stroke="#000" d="M32 41h1" opacity=".278"/><path stroke="#000" d="M33 41h1" opacity=".192"/><path stroke="#000" d="M22 42h1" opacity=".196"/><path stroke="#000" d="M23 42h1" opacity=".251"/><path stroke="#000" d="M24 42h1" opacity=".282"/><path stroke="#000" d="M25 42h1m2 0h1" opacity=".294"/><path stroke="#000" d="M26 42h2" opacity=".298"/><path stroke="#000" d="M29 42h1" opacity=".275"/><path stroke="#000" d="M30 42h1" opacity=".239"/><path stroke="#000" d="M31 42h1" opacity=".176"/></svg>