<svg xmlns="http://www.w3.org/2000/svg" width="16" height="16" shape-rendering="crispEdges" viewBox="0 -0.5 16 16"><path stroke="#7e8c7d" d="M3 4h2m3 0h1m2 1h2"/><path stroke="#748073" d="M5 4h1"/><path stroke="#748074" d="M6 4h1"/><path stroke="gray" d="M7 4h1"/><path stroke="#999" d="M0 5h1"/><path stroke="#5c7f5a" d="M1 5h1"/><path stroke="#6a9867" d="M2 5h1m2 0h3"/><path stroke="#6c9a69" d="M3 5h1"/><path stroke="#6b9a68" d="M4 5h1"/><path stroke="#517f4f" d="M8 5h1"/><path stroke="#396638" d="M9 5h1"/><path stroke="#617660" d="M10 5h1"/><path stroke="#646464" d="M0 6h1m12 0h1m1 1h1m-5 4h1"/><path stroke="#6f756f" d="M1 6h1"/><path stroke="#548854" d="M2 6h1"/><path stroke="#598c58" d="M3 6h1"/><path stroke="#588c57" d="M4 6h1"/><path stroke="#50854f" d="M5 6h1"/><path stroke="#3e673e" d="M6 6h1"/><path stroke="#0b200b" d="M7 6h1"/><path stroke="#001300" d="M8 6h2"/><path stroke="#192619" d="M10 6h1"/><path stroke="#aaa" d="M11 6h1"/><path stroke="#959595" d="M12 6h1"/><path stroke="#6e6e6e" d="M14 6h1"/><path stroke="#686868" d="M0 7h1"/><path stroke="#4b534b" d="M1 7h1"/><path stroke="#377339" d="M2 7h1"/><path stroke="#3b6b3c" d="M3 7h1"/><path stroke="#4c4c4c" d="M4 7h1m0 1h1m7 2h1"/><path stroke="#535353" d="M5 7h1"/><path stroke="#575757" d="M6 7h1"/><path stroke="#4d584d" d="M7 7h1"/><path stroke="#505f50" d="M8 7h1"/><path stroke="#454c45" d="M9 7h1"/><path stroke="#555" d="M10 7h1"/><path stroke="#5f5f5f" d="M11 7h1"/><path stroke="#606060" d="M12 7h1"/><path stroke="#4d4d4d" d="M13 7h1m-3 1h1"/><path stroke="#666" d="M14 7h1m-2 1h1m-3 1h1"/><path stroke="#5e5e5e" d="M1 8h1m8 0h1"/><path stroke="#384f39" d="M2 8h1"/><path stroke="#315033" d="M3 8h1"/><path stroke="#454545" d="M4 8h1"/><path stroke="#515151" d="M6 8h1"/><path stroke="#545454" d="M7 8h1"/><path stroke="#474747" d="M8 8h1"/><path stroke="#525252" d="M9 8h1"/><path stroke="#404040" d="M12 8h1m2 0h1m-6 1h1m3 0h1m-6 2h2"/><path stroke="#696969" d="M14 8h1"/><path stroke="#707070" d="M3 9h1m11 0h1M5 10h1m8 0h1m-8 1h1m4 0h1"/><path stroke="#434343" d="M4 9h1"/><path stroke="#393939" d="M5 9h1"/><path stroke="#3d3d3d" d="M6 9h1"/><path stroke="#3e3e3e" d="M7 9h1"/><path stroke="#444" d="M8 9h1"/><path stroke="#6c6c6c" d="M9 9h1"/><path stroke="#868686" d="M12 9h1"/><path stroke="#5a5a5a" d="M13 9h1m-3 1h1"/><path stroke="#4a4e4a" d="M6 10h1"/><path stroke="#383838" d="M7 10h1"/><path stroke="#343834" d="M8 10h1"/><path stroke="#6c746c" d="M9 10h1"/><path stroke="#757575" d="M10 10h1"/><path stroke="#3f3f3f" d="M12 10h1"/><path stroke="#7c7c7c" d="M8 11h1"/></svg>