<svg xmlns="http://www.w3.org/2000/svg" width="16" height="16" shape-rendering="crispEdges" viewBox="0 -0.5 16 16"><path stroke="#bcbcbc" d="M2 3h2m3 0h2M0 4h1m8 0h1"/><path stroke="#d2d2d2" d="M4 3h1m-1 7h1"/><path stroke="#d1d1d1" d="M5 3h1"/><path stroke="#c9c9c9" d="M6 3h1"/><path stroke="#d5d5d5" d="M1 4h1m1 5h1"/><path stroke="#f2f2f2" d="M2 4h1"/><path stroke="#f9f9f9" d="M3 4h1"/><path stroke="#f6f6f6" d="M4 4h1"/><path stroke="#f3f3f3" d="M5 4h1"/><path stroke="#efefef" d="M6 4h1M3 5h2"/><path stroke="#ececec" d="M7 4h1M5 5h1"/><path stroke="#dfdfdf" d="M8 4h1"/><path stroke="#b0b0b0" d="M10 4h1M9 8h1"/><path stroke="#b5b5b5" d="M11 4h1"/><path stroke="#a1a1a1" d="M0 5h1m10 2h1m1 3h1"/><path stroke="#c2c2c2" d="M1 5h1m4 4h1m4 1h2"/><path stroke="#e3e3e3" d="M2 5h1"/><path stroke="#e9e9e9" d="M6 5h1M5 6h1"/><path stroke="#e5e5e5" d="M7 5h1"/><path stroke="#e2e2e2" d="M8 5h1"/><path stroke="#dedede" d="M9 5h1M7 6h1"/><path stroke="#dbdbdb" d="M10 5h1"/><path stroke="#c3c3c3" d="M11 5h1"/><path stroke="#7b7b7b" d="M12 5h1"/><path stroke="#777" d="M13 5h1"/><path stroke="#929292" d="M14 5h1m-3 2h1M3 10h1"/><path stroke="#a4a4a4" d="M0 6h1"/><path stroke="#b6b6b6" d="M1 6h1m1 0h1m3 1h1"/><path stroke="#afafaf" d="M2 6h1M0 7h1"/><path stroke="#cecece" d="M4 6h1"/><path stroke="#e7e7e7" d="M6 6h1"/><path stroke="#c6c6c6" d="M8 6h1M3 8h1"/><path stroke="#909090" d="M9 6h1"/><path stroke="#838383" d="M10 6h1"/><path stroke="#828282" d="M11 6h1"/><path stroke="#b9b9b9" d="M12 6h1M0 8h1m10 1h1"/><path stroke="#b2b2b2" d="M13 6h1M9 7h1"/><path stroke="gray" d="M14 6h1m-1 3h1"/><path stroke="#888" d="M15 6h1m-4 2h1"/><path stroke="#c5c5c5" d="M1 7h1"/><path stroke="#bebebe" d="M2 7h1m5 4h1"/><path stroke="#b7b7b7" d="M3 7h1"/><path stroke="#b1b1b1" d="M4 7h1"/><path stroke="#aaa" d="M5 7h1"/><path stroke="#bfbfbf" d="M6 7h1"/><path stroke="#adadad" d="M8 7h1m-1 3h1"/><path stroke="#a8a8a8" d="M10 7h1"/><path stroke="#7c7c7c" d="M13 7h1"/><path stroke="#757575" d="M14 7h1"/><path stroke="#494949" d="M15 7h1m-1 3h1"/><path stroke="#d3d3d3" d="M1 8h1"/><path stroke="#cdcdcd" d="M2 8h1"/><path stroke="silver" d="M4 8h1"/><path stroke="#b8b8b8" d="M5 8h1m4 3h1"/><path stroke="#b3b3b3" d="M6 8h1"/><path stroke="#6f6f6f" d="M7 8h1"/><path stroke="#898989" d="M8 8h1m2 0h1"/><path stroke="#939393" d="M10 8h1"/><path stroke="#8d8d8d" d="M13 8h1"/><path stroke="#8e8e8e" d="M14 8h1"/><path stroke="#404040" d="M15 8h1m-1 1h1m-6 3h1"/><path stroke="#858585" d="M0 9h1m2 2h1m11 0h1M5 12h1m7 0h1m-4 1h2"/><path stroke="#a9a9a9" d="M1 9h1"/><path stroke="#dadada" d="M2 9h1"/><path stroke="#cfcfcf" d="M4 9h1"/><path stroke="#c7c7c7" d="M5 9h1m0 2h1"/><path stroke="#767676" d="M7 9h1m-1 1h1"/><path stroke="#9a9a9a" d="M8 9h1"/><path stroke="#acacac" d="M9 9h1"/><path stroke="#9b9b9b" d="M10 9h1"/><path stroke="#979797" d="M12 9h1"/><path stroke="#969696" d="M13 9h1M1 10h1"/><path stroke="#6d6d6d" d="M2 10h1"/><path stroke="#d6d6d6" d="M5 10h1"/><path stroke="#d0d0d0" d="M6 10h1"/><path stroke="#9ba895" d="M9 10h1"/><path stroke="#77916b" d="M10 10h1"/><path stroke="#686868" d="M14 10h1"/><path stroke="#616161" d="M4 11h1"/><path stroke="#7d7d7d" d="M5 11h1"/><path stroke="#868686" d="M7 11h1"/><path stroke="#c1c1c1" d="M9 11h1"/><path stroke="#848484" d="M11 11h1"/><path stroke="#4d4d4d" d="M12 11h1"/><path stroke="#4a4a4a" d="M13 11h1"/><path stroke="#5f5f5f" d="M14 11h1"/><path stroke="#727272" d="M6 12h1"/><path stroke="#575757" d="M7 12h1"/><path stroke="#949494" d="M8 12h1"/><path stroke="#6b6b6b" d="M9 12h1"/><path stroke="#535353" d="M11 12h1"/><path stroke="#707070" d="M12 12h1"/><path stroke="#8f8f8f" d="M8 13h1"/><path stroke="#676767" d="M9 13h1"/></svg>