<svg xmlns="http://www.w3.org/2000/svg" width="32" height="32" shape-rendering="crispEdges" viewBox="0 -0.5 32 32"><path stroke="#3665ba" d="M12 8h1"/><path stroke="#3361b8" d="M13 8h1"/><path stroke="#3261b7" d="M14 8h11"/><path stroke="#5877b4" d="M25 8h1"/><path stroke="#5071b3" d="M26 8h1m-17 3h1m-2 3h1m-2 3h1m-2 1h1"/><path stroke="#d0dce9" d="M4 9h1"/><path stroke="#c9d0d6" d="M5 9h1m-2 3h1"/><path stroke="#c3c6c6" d="M6 9h1m-2 3h1m-2 3h1"/><path stroke="#c4c2be" d="M7 9h1m-2 3h1"/><path stroke="#bbbec0" d="M8 9h1m-2 3h1m-2 3h1m-2 3h1"/><path stroke="#005bd1" d="M11 9h1"/><path stroke="#1977d4" d="M12 9h8"/><path stroke="#267fd8" d="M20 9h1"/><path stroke="#59a1e9" d="M21 9h2"/><path stroke="#3b80cc" d="M23 9h1"/><path stroke="#837a95" d="M24 9h1"/><path stroke="#1e52a9" d="M25 9h1"/><path stroke="#305495" d="M26 9h1"/><path stroke="#666" d="M27 9h1m-1 1h1m-2 1h1m-1 1h1m-1 1h1m-2 1h1m-1 1h1m-1 1h1m-2 1h1m-1 1h1m-1 1h1m-2 1h1M8 21h16"/><path stroke="#a7b2bb" d="M4 10h1"/><path stroke="#969ea3" d="M5 10h1"/><path stroke="#919698" d="M6 10h1"/><path stroke="#8d8f8c" d="M7 10h1"/><path stroke="#0d54c1" d="M10 10h1"/><path stroke="#0085eb" d="M11 10h9"/><path stroke="#0c8cee" d="M20 10h2"/><path stroke="#1993f1" d="M22 10h1"/><path stroke="#0785e6" d="M23 10h1"/><path stroke="#2384d3" d="M24 10h1"/><path stroke="#0c43a3" d="M25 10h1"/><path stroke="#1d3d7a" d="M26 10h1"/><path stroke="#efead8" d="M11 11h13m-1 1h1m-1 1h1m-14 1h1m11 2h1M9 17h1m-1 1h13M8 19h14"/><path stroke="#dbdad2" d="M24 11h1m-15 2h1m12 1h1m-2 3h1"/><path stroke="#194293" d="M25 11h1"/><path stroke="#607eba" d="M9 12h1m-2 3h1"/><path stroke="#cbd1d3" d="M10 12h1"/><path stroke="#ece8d6" d="M11 12h1m-2 3h1"/><path stroke="#e2decd" d="M12 12h10"/><path stroke="#f1ecdd" d="M22 12h1"/><path stroke="#8498bc" d="M24 12h1m-2 3h1m-2 3h1"/><path stroke="#18315e" d="M25 12h1"/><path stroke="#a6b1b9" d="M4 13h1"/><path stroke="#949a9d" d="M5 13h1"/><path stroke="#8e908e" d="M6 13h1"/><path stroke="#28509c" d="M9 13h1"/><path stroke="#cecbbb" d="M11 13h1"/><path stroke="#949488" d="M12 13h1"/><path stroke="#898980" d="M13 13h8"/><path stroke="#c3c1b4" d="M21 13h1"/><path stroke="#fbfaf6" d="M22 13h1m-2 3h1"/><path stroke="#204ba0" d="M24 13h1m-2 3h1m-2 3h1"/><path stroke="#344156" d="M25 13h1"/><path stroke="#b1b0a1" d="M11 14h1"/><path stroke="#7e7e79" d="M12 14h1"/><path stroke="#d1d1d0" d="M13 14h1"/><path stroke="#e6e6e6" d="M14 14h6"/><path stroke="#e0dfdc" d="M20 14h1"/><path stroke="#eae8e0" d="M21 14h1"/><path stroke="#f4f1e5" d="M22 14h1m-2 3h1"/><path stroke="#1a4293" d="M24 14h1m-2 3h1"/><path stroke="#c5d0d9" d="M5 15h1m-2 3h1"/><path stroke="#9fadc3" d="M9 15h1"/><path stroke="#a0a093" d="M11 15h1"/><path stroke="#aeaeab" d="M12 15h1"/><path stroke="#b1b1b1" d="M13 15h1"/><path stroke="#fff" d="M14 15h6"/><path stroke="#e5e2d8" d="M20 15h1"/><path stroke="#fbfaf9" d="M21 15h1m-2 2h1"/><path stroke="#efead9" d="M22 15h1"/><path stroke="#1b3361" d="M24 15h1m-2 3h1"/><path stroke="#7c7f7d" d="M4 16h1"/><path stroke="#797a77" d="M5 16h1"/><path stroke="#274f9c" d="M8 16h1"/><path stroke="#e8e4d6" d="M9 16h1"/><path stroke="#d6d3c2" d="M10 16h1"/><path stroke="#949489" d="M11 16h1"/><path stroke="#e3e2de" d="M12 16h1"/><path stroke="#e9e8e5" d="M13 16h1"/><path stroke="#f7f6f3" d="M14 16h6m-8 1h8"/><path stroke="#dbd7c9" d="M20 16h1"/><path stroke="#354156" d="M24 16h1"/><path stroke="#f3f2ed" d="M10 17h1"/><path stroke="#f6f5f2" d="M11 17h1"/><path stroke="#b9c1ca" d="M8 18h1"/><path stroke="#a2a5a4" d="M4 19h1"/><path stroke="#1a4697" d="M7 19h1"/><path stroke="#364258" d="M23 19h1"/><path stroke="#0d3a94" d="M7 20h1"/><path stroke="#3760a1" d="M8 20h13"/><path stroke="#28539c" d="M21 20h1"/><path stroke="#15336f" d="M22 20h1"/></svg>